<?xml version="1.0" standalone="no"?>
<!DOCTYPE svg PUBLIC "-//W3C//DTD SVG 20010904//EN"
 "http://www.w3.org/TR/2001/REC-SVG-20010904/DTD/svg10.dtd">
<svg version="1.0" xmlns="http://www.w3.org/2000/svg"
 width="764.000000pt" height="771.000000pt" viewBox="0 0 764.000000 771.000000"
 preserveAspectRatio="xMidYMid meet">

<g transform="translate(0.000000,771.000000) scale(0.100000,-0.100000)"
fill="#000000" stroke="none">
<path d="M3959 7411 l-14 -179 43 -7 c24 -4 45 -5 47 -3 2 2 7 61 11 131 4 70
8 126 10 125 2 -3 44 -251 44 -263 0 -3 22 -5 48 -5 l49 0 41 128 c23 70 40
113 37 96 -2 -17 -7 -76 -11 -131 l-7 -101 47 -3 c25 -2 46 -1 46 3 0 4 7 84
16 179 8 94 14 173 12 175 -3 2 -36 6 -76 10 l-71 7 -32 -107 c-18 -58 -36
-101 -40 -94 -3 7 -12 56 -19 110 -13 95 -14 96 -43 102 -16 3 -51 6 -76 6
l-47 0 -15 -179z"/>
<path d="M3504 7468 c3 -62 9 -146 12 -185 l6 -73 33 0 c60 0 65 6 65 76 0 35
3 64 8 64 4 0 22 -27 40 -61 18 -33 40 -63 48 -66 8 -3 34 -1 59 3 l46 9 -51
72 -51 72 23 31 c38 53 24 135 -29 159 -13 6 -67 11 -120 11 l-96 0 7 -112z
m154 7 c3 -19 -2 -33 -14 -42 -29 -21 -34 -16 -34 33 0 41 2 45 23 42 16 -2
23 -11 25 -33z"/>
<path d="M3080 7508 c-68 -35 -85 -66 -85 -151 0 -85 28 -147 85 -185 64 -44
189 -16 231 51 16 26 19 46 17 107 -5 128 -62 200 -157 200 -29 0 -64 -9 -91
-22z m109 -79 c24 -26 45 -116 35 -154 -9 -35 -48 -51 -78 -31 -42 27 -61 152
-29 188 21 24 48 23 72 -3z"/>
<path d="M4645 7480 c-87 -36 -139 -204 -89 -289 33 -56 164 -100 198 -66 9 9
16 22 16 30 0 7 2 19 5 27 4 10 -7 13 -46 13 -69 0 -94 28 -86 98 12 99 61
137 129 100 l37 -21 20 31 c24 37 21 44 -33 68 -43 19 -116 24 -151 9z"/>
<path d="M2700 7409 c-47 -16 -90 -31 -97 -33 -8 -4 5 -57 44 -173 31 -92 57
-170 59 -172 5 -6 94 21 94 29 0 4 -9 33 -20 65 -11 32 -20 59 -20 61 0 1 17
8 38 14 51 17 54 21 41 59 -9 27 -15 32 -33 27 -68 -20 -73 -19 -84 12 -10 31
-10 31 39 47 52 18 55 24 36 66 l-12 26 -85 -28z"/>
<path d="M5014 7373 c-5 -18 -2 -30 10 -38 15 -11 14 -20 -15 -101 -40 -114
-46 -124 -70 -124 -20 0 -43 -39 -30 -51 8 -8 149 -59 162 -59 20 0 27 44 11
63 -15 17 -15 22 2 70 53 151 56 157 81 157 25 0 45 35 28 49 -9 9 -150 61
-163 61 -5 0 -13 -12 -16 -27z"/>
<path d="M5533 7282 c-56 -23 -58 -27 -23 -42 31 -13 160 -6 160 9 0 6 -85 52
-93 50 -1 0 -21 -8 -44 -17z"/>
<path d="M5369 7197 c-71 -48 -119 -162 -99 -236 12 -47 62 -93 119 -110 52
-15 77 -14 117 5 70 33 134 170 114 244 -26 96 -169 152 -251 97z m139 -79
c19 -19 14 -60 -14 -117 -31 -61 -61 -80 -99 -63 -30 14 -33 53 -10 110 30 71
89 104 123 70z"/>
<path d="M2083 7144 c-46 -25 -83 -50 -83 -54 0 -17 165 -310 174 -310 5 0 47
20 92 46 l84 45 -16 32 c-9 18 -18 34 -20 36 -2 2 -23 -8 -48 -23 l-45 -26
-16 31 c-9 17 -15 32 -13 33 2 1 20 13 40 25 l37 22 -16 34 -16 33 -44 -21
c-38 -19 -45 -19 -53 -7 -17 27 -11 39 30 60 22 11 40 23 40 26 0 11 -31 64
-38 64 -4 -1 -44 -21 -89 -46z"/>
<path d="M5751 6866 c-56 -80 -101 -148 -101 -153 0 -4 16 -18 35 -30 l34 -23
71 102 c38 56 70 97 70 91 0 -6 -11 -66 -25 -133 -14 -68 -22 -126 -17 -129 4
-3 30 -21 56 -40 26 -18 51 -29 56 -25 4 5 51 72 105 148 l97 140 -33 27 c-19
15 -37 25 -41 23 -4 -3 -36 -45 -70 -95 -34 -50 -64 -87 -65 -82 -2 5 8 62 21
126 l24 118 -53 40 c-28 21 -54 39 -58 39 -3 0 -51 -65 -106 -144z"/>
<path d="M1762 6930 c-32 -7 -172 -94 -172 -106 0 -11 203 -294 210 -294 18 0
132 93 150 123 72 117 -58 308 -188 277z m51 -110 c14 -11 35 -40 47 -65 18
-37 19 -48 9 -67 -21 -41 -32 -38 -74 20 -76 104 -80 113 -64 123 23 14 55 10
82 -11z"/>
<path d="M3769 6793 c7 -13 5 -23 -6 -35 -13 -15 -14 -18 -2 -18 23 0 43 39
28 56 -17 20 -32 18 -20 -3z"/>
<path d="M3886 6685 c-4 -12 -2 -13 12 -7 9 5 24 12 32 15 9 3 4 6 -11 6 -15
1 -29 -6 -33 -14z"/>
<path d="M3814 6666 c-10 -8 -16 -17 -12 -21 7 -7 48 16 48 27 0 12 -14 9 -36
-6z"/>
<path d="M3770 6640 c0 -5 5 -10 11 -10 5 0 7 5 4 10 -3 6 -8 10 -11 10 -2 0
-4 -4 -4 -10z"/>
<path d="M3720 6624 c0 -16 9 -18 28 -5 10 6 9 10 -7 14 -14 3 -21 0 -21 -9z"/>
<path d="M3620 6586 c0 -9 7 -16 16 -16 17 0 14 22 -4 28 -7 2 -12 -3 -12 -12z"/>
<path d="M6352 6388 c-70 -67 -129 -126 -130 -131 -2 -4 31 -43 75 -87 l78
-79 30 24 30 24 -43 44 c-23 23 -42 46 -42 50 0 4 45 51 100 105 l100 97 -35
38 -35 37 -128 -122z"/>
<path d="M1129 6408 l-45 -53 96 -162 96 -163 39 40 39 40 -18 31 -18 31 34
35 c34 34 36 35 65 19 30 -15 31 -14 68 24 21 22 37 41 34 44 -9 8 -329 166
-337 166 -4 0 -28 -24 -53 -52z m174 -117 c4 -4 -1 -18 -11 -31 l-18 -23 -36
49 c-53 75 -53 77 4 43 29 -17 57 -34 61 -38z"/>
<path d="M4667 6405 c-10 -21 -29 -40 -49 -49 -18 -8 -27 -15 -20 -15 7 -1 12
-14 12 -32 0 -20 4 -29 13 -26 6 2 12 10 13 18 1 28 33 88 53 101 23 14 28 38
8 38 -7 0 -21 -16 -30 -35z"/>
<path d="M4700 6361 c0 -5 7 -11 15 -15 8 -3 15 -1 15 3 0 5 -7 11 -15 15 -8
3 -15 1 -15 -3z"/>
<path d="M2810 6280 c0 -5 5 -10 10 -10 6 0 10 5 10 10 0 6 -4 10 -10 10 -5 0
-10 -4 -10 -10z"/>
<path d="M2892 6258 l-21 -23 25 0 c18 0 24 5 24 23 0 12 -1 22 -3 22 -2 0
-13 -10 -25 -22z"/>
<path d="M2710 6205 c0 -14 5 -25 10 -25 6 0 10 -7 10 -15 0 -9 -19 -24 -44
-35 -24 -10 -46 -24 -49 -32 -2 -7 -7 -10 -11 -6 -4 3 -3 15 3 26 26 48 -36
42 -124 -12 -61 -38 -71 -48 -82 -87 -18 -59 -62 -101 -157 -147 -87 -43 -116
-68 -156 -137 -14 -24 -38 -65 -54 -91 -41 -65 -47 -145 -16 -207 l22 -45 -26
-65 c-30 -76 -32 -91 -10 -83 9 3 20 6 24 6 5 0 23 20 40 45 27 39 60 60 60
38 0 -13 -45 -98 -70 -132 -12 -18 -19 -39 -16 -47 3 -8 2 -13 -3 -10 -23 14
-43 -24 -61 -114 -10 -52 -16 -97 -15 -99 5 -4 28 15 92 77 46 43 53 55 43 67
-10 12 -9 15 6 15 10 0 35 19 56 41 38 41 39 41 32 13 -4 -16 -11 -39 -15 -52
-25 -66 2 -54 40 18 18 33 37 60 43 60 6 0 7 -7 3 -17 -27 -65 -45 -116 -42
-119 8 -8 47 38 47 56 0 13 7 20 20 20 15 0 20 -7 20 -25 0 -13 -6 -28 -13
-32 -24 -14 -27 -50 -6 -69 26 -23 24 -34 -6 -34 -15 0 -25 6 -25 15 0 10 -9
14 -29 12 -28 -2 -30 -6 -45 -72 -29 -130 -36 -190 -37 -347 -2 -145 -9 -186
-23 -140 -11 32 7 432 19 453 14 22 33 124 24 127 -5 2 -9 10 -9 19 0 25 -23
9 -33 -23 -5 -16 -10 -60 -12 -99 -2 -38 -4 -74 -6 -80 -1 -5 1 -18 5 -27 5
-10 1 -27 -9 -42 -10 -14 -15 -33 -11 -41 3 -8 -3 -23 -14 -33 -11 -10 -26
-34 -35 -55 -8 -20 -18 -37 -21 -37 -10 0 8 65 20 72 7 5 10 41 9 103 -2 64 2
108 11 129 15 36 31 116 23 116 -3 0 -15 -16 -27 -35 -12 -19 -32 -38 -45 -41
-13 -3 -26 -12 -29 -20 -3 -8 -12 -14 -20 -14 -7 0 -17 -11 -20 -25 -4 -16
-13 -25 -26 -25 -11 0 -20 -4 -20 -9 0 -5 8 -8 17 -7 32 2 44 -42 42 -159 -2
-169 -2 -167 21 -160 11 4 20 2 20 -4 0 -6 -5 -11 -11 -11 -7 0 -18 -8 -25
-17 -12 -17 -13 -16 -23 7 -8 20 -9 13 -5 -32 2 -32 1 -58 -3 -58 -4 0 -29 19
-56 42 -44 36 -48 38 -42 17 4 -13 8 -24 9 -24 0 0 10 -5 21 -11 13 -7 22 -26
26 -56 6 -40 20 -74 49 -118 6 -8 15 -28 20 -44 l11 -29 22 22 c53 49 30 2
-29 -60 -14 -15 -13 -20 5 -53 12 -20 24 -61 27 -91 6 -46 4 -55 -9 -55 -9 0
-20 8 -26 17 -5 10 -13 14 -18 9 -4 -5 -2 -11 5 -13 19 -7 14 -23 -14 -50 -18
-17 -32 -22 -47 -17 -20 6 -19 3 6 -24 28 -29 30 -29 56 -14 15 8 28 24 28 35
1 10 4 22 8 25 9 9 35 -32 30 -46 -3 -9 1 -12 13 -10 9 2 16 9 15 16 -2 6 6
16 17 22 11 6 20 15 20 21 0 19 26 38 40 29 18 -11 -13 -83 -53 -120 l-28 -26
45 -85 c51 -93 54 -106 29 -112 -10 -2 -4 -4 13 -4 17 0 36 -3 42 -7 17 -10
23 10 12 38 -9 24 -8 25 22 19 29 -6 30 -5 19 16 -7 11 -18 21 -26 21 -8 0
-12 6 -9 13 3 8 -2 20 -11 27 -21 17 -21 102 0 94 8 -3 17 -21 21 -40 9 -51
10 -51 102 50 39 45 42 51 42 107 0 58 27 219 39 229 3 3 17 22 31 42 16 25
47 49 86 69 83 43 105 61 95 77 -6 11 -17 11 -49 3 -22 -6 -42 -15 -44 -20 -2
-4 -23 -20 -47 -35 -31 -20 -46 -25 -54 -17 -20 20 -29 12 -22 -19 5 -24 3
-30 -9 -30 -23 0 -18 78 5 85 16 6 74 83 67 90 -2 2 -22 -14 -46 -36 -29 -28
-51 -41 -72 -41 -35 -1 -39 -12 -11 -30 15 -9 17 -15 9 -25 -6 -8 -8 -16 -5
-20 4 -3 -1 -20 -10 -37 -9 -17 -22 -42 -29 -56 -15 -29 -34 -38 -34 -16 0 9
-7 16 -15 16 -9 0 -12 -6 -8 -17 4 -11 2 -15 -3 -10 -5 5 -9 20 -9 33 -1 18 3
23 16 19 10 -3 20 -1 24 5 3 5 1 10 -4 10 -22 0 -10 21 16 31 15 6 23 13 17
17 -11 8 -12 72 -1 90 5 7 13 9 19 6 13 -8 59 16 52 28 -3 4 -10 6 -15 3 -12
-8 -11 -3 1 30 8 21 13 25 24 16 10 -9 17 -7 26 4 11 13 11 16 0 13 -29 -7
-19 21 12 31 18 7 45 28 61 48 15 20 27 30 27 22 0 -8 -5 -20 -12 -27 -7 -7
-9 -12 -5 -12 4 0 0 -14 -8 -31 -19 -36 -15 -44 15 -34 13 4 19 12 16 21 -12
30 219 243 319 294 17 9 29 20 28 26 -3 14 23 28 117 62 69 26 75 30 76 57 3
69 4 75 20 75 12 0 15 -9 12 -42 -3 -41 -1 -43 27 -46 37 -5 115 7 115 17 0 4
-23 17 -51 29 -47 19 -51 24 -45 47 4 14 2 25 -4 25 -5 0 -10 8 -10 17 0 13
-7 10 -30 -12 -31 -30 -42 -28 -55 13 -4 14 -2 22 5 22 7 0 9 8 5 19 -7 22 13
23 39 2 8 -7 24 -10 36 -6 12 4 27 2 34 -4 17 -15 24 0 22 51 -2 33 1 37 27
42 25 5 28 9 23 31 -6 24 -5 25 16 14 38 -19 58 -41 58 -62 0 -11 -3 -17 -7
-14 -3 4 -18 -3 -31 -15 -26 -23 -26 -22 -6 27 5 11 2 13 -10 9 -10 -4 -15
-13 -12 -20 3 -8 1 -14 -4 -14 -6 0 -10 -9 -10 -21 0 -13 10 -23 30 -30 46
-16 40 -41 -8 -33 -28 4 -43 2 -55 -10 -22 -22 -12 -44 29 -61 20 -8 34 -21
35 -32 0 -14 2 -14 9 5 5 12 14 22 20 22 6 0 8 -5 4 -12 -4 -6 1 -17 11 -24
16 -12 17 -17 6 -40 -12 -27 -7 -64 10 -64 5 0 9 -6 9 -13 0 -21 38 -39 58
-28 15 9 14 10 -5 11 -19 0 -23 6 -23 30 0 17 9 39 20 50 11 11 17 26 14 35
-6 15 7 21 19 9 3 -4 22 -8 42 -9 26 -1 39 3 46 17 11 20 6 22 -21 8 -15 -8
-20 -6 -25 10 -8 24 -18 25 -38 5 -8 -8 -17 -11 -20 -8 -7 6 46 44 76 56 13 5
24 0 36 -14 l17 -21 31 26 c16 14 33 23 37 19 3 -3 6 1 6 10 0 8 9 19 20 22
11 3 20 11 20 17 0 6 9 8 19 5 29 -7 16 16 -17 30 -15 6 -43 14 -62 17 -19 4
-65 21 -102 38 -52 25 -67 38 -72 59 -11 57 35 256 76 326 20 33 44 43 108 44
48 2 158 -28 200 -54 19 -12 38 -21 43 -19 4 1 7 -25 7 -58 0 -52 -4 -64 -25
-84 -13 -12 -29 -34 -34 -47 -9 -21 -10 -19 -10 19 -1 34 -5 42 -19 42 -15 0
-17 6 -14 36 6 49 -19 70 -95 79 -59 6 -61 6 -82 -23 -24 -35 -67 -201 -58
-226 10 -24 85 -56 134 -56 38 0 43 3 49 26 4 14 17 30 30 34 13 5 24 16 24
25 0 8 5 15 10 15 6 0 10 -10 10 -21 0 -12 7 -27 16 -33 14 -11 14 -15 0 -49
-8 -21 -13 -44 -10 -52 5 -11 -1 -15 -18 -15 -29 0 -48 -17 -48 -42 0 -10 -6
-21 -14 -24 -22 -9 -30 -72 -12 -99 12 -18 12 -25 3 -28 -9 -4 -9 -6 1 -6 6
-1 12 -8 12 -17 0 -20 -35 -14 -36 6 -4 57 -2 55 -24 35 -14 -13 -17 -22 -10
-29 5 -5 10 -20 10 -32 0 -25 22 -38 39 -21 8 8 14 8 23 -1 9 -9 6 -16 -12
-32 -13 -11 -25 -20 -27 -20 -12 0 -38 39 -35 54 5 26 -13 42 -31 28 -19 -16
-7 -84 27 -145 31 -57 34 -81 8 -73 -11 4 -36 -1 -58 -11 -21 -9 -45 -16 -53
-14 -7 1 -10 -2 -7 -7 3 -5 -14 -13 -37 -16 -24 -4 -59 -15 -77 -25 -33 -17
-34 -17 -75 5 -52 29 -158 54 -252 59 -60 3 -74 1 -83 -13 -9 -13 -10 -9 -5
18 3 19 6 52 5 73 0 34 3 39 44 59 37 18 43 24 34 36 -13 15 -66 9 -103 -11
-20 -11 -26 -14 -46 -16 -7 -1 -9 -18 -4 -52 5 -38 3 -54 -8 -67 -8 -9 -18
-27 -22 -40 -4 -14 -12 -21 -20 -18 -8 3 -25 -9 -38 -27 -14 -18 -33 -41 -44
-52 -86 -92 -151 -205 -109 -189 9 3 38 -22 77 -68 43 -49 69 -72 82 -70 14 1
18 -2 13 -14 -8 -20 11 -45 29 -38 23 9 22 -38 -3 -109 -13 -38 -22 -71 -19
-73 15 -16 87 69 87 103 0 14 3 14 23 -4 20 -19 25 -19 55 -7 21 9 32 21 32
34 0 11 5 20 10 20 6 0 10 -11 10 -25 0 -14 5 -25 10 -25 6 0 9 5 8 12 -5 20
87 59 201 84 70 15 67 16 157 -44 27 -18 55 -44 62 -57 7 -14 17 -25 23 -25 5
0 34 -24 63 -54 39 -39 57 -51 65 -43 6 6 11 16 11 22 0 18 -34 45 -56 45 -16
0 -16 2 -4 10 12 8 12 10 -3 16 -9 3 -17 11 -17 16 0 12 -22 31 -132 114 -74
56 -88 71 -88 94 0 20 -6 31 -20 35 -21 7 -28 25 -9 25 6 0 9 6 6 14 -3 8 1
20 9 26 9 8 14 32 14 69 0 57 -12 83 -35 75 -6 -3 -18 2 -25 11 -16 19 -37 19
-48 -1 -6 -12 -9 -8 -9 15 0 34 7 37 37 19 17 -11 22 -10 29 1 11 17 34 4 27
-15 -8 -21 16 -17 71 10 26 13 63 27 81 31 17 4 32 10 32 14 0 9 69 22 140 25
49 3 130 -29 130 -51 0 -15 26 -18 35 -3 9 15 25 12 19 -4 -5 -14 106 -128
132 -134 11 -3 13 -29 8 -145 -6 -173 -6 -177 -21 -202 -9 -16 -14 -18 -24 -7
-7 6 -24 12 -39 12 -24 -1 -24 -1 -5 -16 19 -14 19 -15 -10 -38 -31 -25 -45
-25 -45 0 0 8 -6 14 -14 14 -8 0 -13 -8 -12 -17 1 -11 -12 -21 -42 -29 -39
-12 -72 -34 -72 -48 0 -3 -9 -15 -20 -26 -11 -11 -20 -33 -20 -48 0 -15 -5
-33 -12 -40 -14 -14 -11 -105 3 -111 6 -2 4 -10 -4 -20 -18 -20 -38 -91 -30
-104 4 -6 -2 -8 -15 -5 -17 5 -21 2 -19 -15 2 -21 -43 -51 -115 -76 -16 -6
-28 -15 -28 -20 0 -6 -8 -11 -18 -11 -10 0 -22 -4 -27 -9 -6 -5 -44 -16 -85
-26 -41 -10 -80 -22 -87 -27 -7 -5 -12 -5 -15 2 -2 8 -11 8 -31 1 -26 -10 -28
-9 -25 11 2 16 -10 30 -52 59 -30 21 -86 66 -124 101 l-69 62 8 120 c4 67 7
139 8 161 0 23 8 48 19 59 13 15 15 23 6 33 -6 8 -15 10 -19 6 -10 -11 -47
-73 -59 -100 -5 -14 -15 -20 -24 -17 -18 7 -29 -68 -24 -163 3 -63 1 -68 -17
-69 -31 -2 -96 -35 -93 -48 6 -32 -54 -99 -85 -94 -19 3 -21 8 -19 38 2 19 1
32 -3 28 -12 -12 -57 21 -100 73 -39 46 -64 57 -73 32 -2 -7 4 -13 13 -13 11
0 15 -5 11 -15 -6 -16 88 -127 131 -155 14 -9 25 -28 29 -50 10 -62 55 -180
70 -180 8 0 11 -6 7 -16 -3 -9 4 -29 17 -46 13 -17 24 -47 26 -65 2 -31 0 -33
-19 -27 -30 9 -47 24 -47 41 0 8 -4 12 -8 9 -10 -6 -52 38 -52 54 0 6 -7 10
-15 10 -8 0 -15 5 -15 10 0 6 -6 10 -14 10 -9 0 -12 8 -8 25 5 30 -13 34 -21
5 -7 -28 -27 -25 -27 5 0 14 4 25 9 25 13 0 -4 48 -27 78 -15 20 -23 22 -60
16 -34 -5 -42 -11 -42 -28 0 -17 -2 -18 -10 -6 -17 26 -11 1 15 -60 25 -60 34
-140 15 -140 -11 0 -14 13 -10 43 1 11 -12 30 -29 44 -21 18 -31 35 -31 53 0
31 -23 56 -41 45 -7 -5 -9 -24 -5 -55 6 -44 4 -49 -34 -92 -22 -26 -40 -53
-40 -62 0 -9 -7 -16 -15 -16 -8 0 -23 -8 -34 -19 -10 -10 -27 -24 -37 -30 -18
-11 -18 -11 -1 -22 14 -8 15 -14 7 -24 -14 -17 3 -29 30 -20 22 7 29 -20 8
-28 -8 -3 -6 -6 5 -6 10 -1 17 6 17 17 0 10 22 42 50 70 53 55 56 62 39 94
-18 34 4 44 40 17 39 -28 56 -76 41 -114 -9 -24 -9 -26 4 -16 10 9 16 9 21 1
4 -6 5 -14 2 -17 -5 -4 48 -63 57 -63 2 0 2 9 -1 20 -7 25 9 26 30 2 10 -11
14 -26 10 -40 -3 -13 -1 -22 6 -22 6 0 11 -7 11 -15 0 -8 6 -12 13 -9 9 3 20
-10 30 -37 9 -24 16 -44 14 -45 -1 -1 -19 4 -39 11 -35 12 -37 11 -28 -6 6
-10 17 -16 24 -13 8 3 19 -4 26 -16 15 -28 -1 -72 -43 -116 -20 -22 -27 -38
-23 -52 9 -26 -3 -52 -22 -52 -12 0 -13 -3 -4 -12 9 -9 20 -3 47 28 29 33 38
37 52 28 11 -7 17 -23 16 -40 -1 -28 -1 -28 9 -6 6 12 15 22 20 22 4 0 8 14 8
30 0 32 14 40 24 14 9 -23 7 -54 -2 -54 -5 0 -9 -7 -9 -15 0 -20 13 -19 21 1
9 24 28 5 25 -24 -2 -15 0 -32 3 -37 15 -24 20 -106 8 -120 -7 -8 -9 -15 -4
-15 13 0 35 -51 27 -63 -3 -5 0 -8 8 -5 9 3 14 22 14 56 0 28 4 54 8 58 4 4 7
-2 7 -14 0 -12 7 -27 15 -34 9 -7 22 -19 30 -26 13 -11 15 -11 15 2 0 9 7 16
15 16 9 0 12 6 8 16 -4 12 -2 15 8 12 8 -3 14 -11 15 -19 0 -8 5 -23 9 -33 5
-11 9 -38 9 -60 1 -38 -1 -41 -34 -52 -24 -8 -39 -9 -47 -2 -10 8 -13 6 -13
-6 0 -33 -43 -60 -53 -33 -10 23 -27 -16 -27 -63 0 -33 9 -58 30 -92 17 -27
34 -48 38 -48 8 0 11 -27 14 -145 1 -27 8 -56 15 -63 8 -8 13 -9 13 -3 0 6 6
11 14 11 15 0 27 22 32 60 1 14 7 41 13 60 5 19 13 47 16 63 6 32 20 35 35 7
8 -15 6 -28 -10 -57 -22 -41 -25 -58 -10 -48 5 3 10 -1 10 -10 0 -12 4 -13 18
-6 38 21 72 61 72 87 0 34 52 80 99 88 24 4 39 13 46 28 6 12 19 27 30 33 27
13 75 51 75 59 0 3 -5 6 -11 6 -6 0 -17 7 -25 15 -17 16 -44 20 -44 7 0 -5
-11 -14 -25 -20 -22 -10 -25 -18 -25 -62 0 -43 -3 -50 -19 -50 -21 0 -35 28
-26 53 9 21 -10 30 -25 12 -7 -8 -16 -12 -21 -9 -5 3 -9 -2 -9 -10 0 -9 -4
-16 -10 -16 -5 0 -10 12 -10 26 0 14 4 23 9 20 5 -3 11 1 15 9 3 8 15 15 26
15 17 0 20 6 20 40 0 36 3 40 25 40 17 0 25 -6 25 -17 0 -14 2 -14 20 2 12 11
18 25 15 36 -11 34 29 59 93 59 38 0 70 7 94 20 38 20 56 14 35 -12 -27 -33
-79 -60 -120 -61 -38 -2 -43 -5 -39 -22 2 -11 19 -27 38 -36 34 -16 35 -16 70
12 19 15 40 29 47 32 6 2 11 16 9 30 -1 15 3 27 8 27 6 0 10 -4 10 -10 0 -5 9
-10 19 -10 11 0 23 5 26 10 3 6 12 10 18 10 7 0 4 -7 -5 -14 -10 -7 -18 -18
-18 -24 0 -16 42 -1 68 23 12 13 36 28 53 35 16 7 28 17 26 23 -6 20 -26 19
-44 -2 -16 -20 -43 -29 -43 -15 0 4 11 17 26 30 14 13 20 24 15 24 -6 0 -8 7
-5 15 8 19 24 20 24 1 0 -8 7 -16 15 -20 17 -6 21 9 5 19 -13 8 -13 35 0 35 6
0 23 8 38 19 97 66 175 113 227 137 33 15 82 37 109 50 54 26 66 24 66 -11 0
-30 -41 -60 -71 -52 -12 3 -29 2 -38 -2 -9 -5 -41 -16 -71 -26 -62 -19 -122
-53 -116 -64 3 -4 -15 -23 -39 -42 -45 -35 -65 -80 -26 -59 11 5 23 15 26 20
7 12 299 160 315 160 6 0 10 -25 10 -56 0 -46 3 -57 19 -61 10 -2 26 -20 35
-39 16 -35 14 -60 -5 -49 -19 12 -8 -17 15 -40 17 -16 22 -31 19 -49 -4 -18 0
-28 11 -32 26 -10 18 -41 -18 -71 l-34 -28 34 -33 c19 -19 34 -29 34 -23 0 6
8 11 17 11 13 0 14 -3 5 -12 -9 -9 -5 -17 13 -34 14 -13 25 -29 25 -36 0 -7
14 -22 30 -33 16 -11 30 -28 30 -37 0 -9 4 -19 9 -22 4 -3 11 -19 14 -36 7
-31 37 -43 37 -15 0 8 5 15 11 15 6 0 8 -8 5 -17 -7 -25 18 -56 41 -49 20 6
63 -25 63 -46 0 -10 2 -10 9 1 10 15 61 8 72 -11 4 -6 13 -5 27 3 17 10 23 10
36 0 14 -12 16 -9 16 29 0 42 0 42 30 37 25 -5 30 -3 30 12 0 30 52 37 100 13
33 -16 40 -17 45 -4 3 9 13 12 25 9 28 -7 25 11 -4 24 -26 12 -54 55 -43 66 4
3 22 2 41 -4 23 -7 51 -8 83 -2 57 11 90 5 119 -22 15 -14 40 -22 80 -25 58
-4 58 -4 29 10 -16 9 -36 15 -42 16 -7 0 -13 5 -13 10 0 6 -8 5 -20 -2 -16
-11 -22 -9 -34 7 -13 17 -13 20 0 23 25 6 15 19 -24 30 -52 16 -75 42 -66 76
8 32 26 33 93 7 46 -19 61 -19 61 1 0 9 -59 48 -72 48 -5 0 -8 -7 -8 -15 0 -8
-2 -15 -5 -15 -11 0 -45 35 -45 46 0 7 -5 14 -12 16 -17 6 76 68 101 68 12 0
21 5 21 11 0 6 -11 8 -28 4 -20 -4 -33 -1 -42 10 -11 13 -9 19 11 38 39 38 69
76 69 90 1 6 14 27 30 46 24 28 34 33 59 29 19 -3 31 0 30 6 -4 30 3 46 17 46
16 0 42 20 117 87 37 33 38 35 20 49 -16 12 -16 15 -3 24 8 5 11 10 6 10 -5 0
-2 7 5 16 12 15 11 16 -9 10 -33 -11 -28 13 10 46 34 29 46 70 19 66 -8 -2
-17 5 -19 15 -2 12 3 17 17 17 11 0 22 9 26 20 3 11 13 20 21 20 8 0 19 11 24
25 5 14 16 25 24 25 7 0 16 7 20 15 3 8 18 20 33 27 15 6 46 29 68 49 23 21
57 42 80 48 63 16 143 47 163 62 39 32 82 59 93 59 7 0 22 9 33 19 22 20 148
90 246 135 36 17 162 86 257 141 61 35 75 62 32 62 -15 0 -30 -6 -33 -13 -6
-15 -98 -64 -121 -64 -9 0 -18 7 -22 16 -4 12 -14 14 -42 9 -62 -11 -142 -45
-180 -75 -39 -33 -51 -37 -51 -17 0 20 49 61 101 86 26 12 54 30 64 41 17 19
17 20 -2 20 -11 0 -27 -8 -36 -17 -28 -31 -188 -106 -215 -101 -30 7 -14 48
38 99 28 27 55 49 60 49 5 0 20 10 32 21 34 31 114 83 185 120 35 18 70 41 80
51 15 17 -164 -70 -194 -94 -29 -23 -151 -78 -174 -78 -15 0 -38 -9 -53 -21
-14 -11 -30 -17 -36 -14 -5 3 -10 -2 -10 -13 0 -10 -19 -34 -42 -52 -24 -19
-44 -38 -46 -42 -2 -4 -15 -8 -29 -8 -15 0 -40 -10 -57 -23 -32 -24 -71 -41
-118 -51 -15 -3 -30 -15 -33 -26 -3 -11 -16 -25 -28 -31 -12 -7 -26 -18 -30
-25 -11 -19 -65 -46 -77 -39 -5 3 -11 1 -15 -5 -13 -22 -35 -10 -35 19 0 51
16 76 83 130 35 28 77 69 92 90 27 35 49 53 114 91 53 32 146 93 151 100 8 11
71 89 103 126 16 18 44 39 63 46 19 6 34 15 34 19 0 5 26 26 57 49 31 22 68
56 82 76 23 33 129 94 162 94 7 0 8 7 4 18 -4 9 -10 25 -12 35 -9 30 -29 19
-99 -55 -88 -94 -166 -155 -218 -170 -22 -7 -59 -27 -82 -45 -23 -18 -46 -33
-52 -33 -7 0 -35 -22 -64 -50 -42 -39 -60 -50 -88 -50 -33 -1 -33 -2 -12 -12
31 -15 28 -24 -21 -52 -23 -14 -58 -41 -77 -61 -59 -61 -70 -48 -70 82 0 48
-3 84 -6 81 -3 -3 -5 -65 -5 -138 1 -72 -4 -140 -9 -150 -12 -22 -69 -57 -113
-68 -21 -5 -44 -24 -65 -53 -76 -101 -96 -121 -118 -116 -17 3 -20 0 -16 -15
2 -10 -1 -18 -7 -18 -6 0 -11 6 -11 14 0 8 -5 16 -11 18 -6 2 7 20 30 41 33
29 37 37 22 37 -11 0 -24 -6 -28 -14 -11 -19 -135 -116 -149 -116 -27 0 -24
34 6 65 36 37 38 45 8 37 -14 -3 -19 -2 -14 6 4 7 20 12 37 12 19 0 29 5 29
15 0 8 3 15 8 15 4 0 13 10 21 23 13 20 13 21 -2 9 -19 -16 -37 -8 -37 17 0
10 -3 21 -6 24 -7 7 -44 -30 -44 -45 0 -4 -11 -8 -25 -8 -18 0 -23 -4 -19 -15
4 -10 0 -15 -11 -15 -13 0 -16 6 -11 25 5 20 3 25 -13 25 -10 0 -21 -7 -25
-15 -10 -26 -29 -17 -23 11 4 20 -1 28 -21 37 -20 9 -26 9 -30 -1 -2 -6 -8
-12 -14 -12 -19 0 -120 -114 -133 -149 -15 -43 -39 -56 -29 -15 4 17 3 25 -3
21 -17 -11 -21 -56 -7 -74 13 -17 14 -17 8 0 -3 9 -2 17 3 17 6 0 15 -18 22
-40 7 -22 16 -38 21 -35 6 4 10 1 10 -4 0 -13 -30 -14 -49 -2 -8 5 -11 16 -8
25 9 23 -2 20 -24 -6 -22 -27 -25 -50 -5 -42 7 3 16 -1 19 -10 3 -8 -1 -17
-10 -20 -10 -4 -13 -14 -9 -29 4 -18 -1 -27 -24 -40 -28 -17 -29 -17 -32 5 -2
13 -9 22 -16 21 -19 -4 -15 12 18 67 16 28 32 61 36 74 6 26 -11 45 -20 21 -3
-8 -15 -15 -27 -15 -14 0 -19 -5 -16 -15 4 -8 2 -17 -4 -20 -5 -4 -7 -10 -5
-14 3 -4 -5 -17 -19 -29 -20 -18 -24 -18 -29 -5 -4 9 -1 22 5 29 16 20 -5 18
-25 -2 -9 -8 -16 -27 -16 -40 0 -19 -4 -24 -17 -22 -10 2 -17 10 -15 17 1 7
-1 10 -5 8 -127 -79 -159 -97 -170 -97 -7 0 -13 -5 -13 -10 0 -6 -16 -18 -35
-27 -19 -9 -35 -23 -35 -31 0 -9 -6 -12 -16 -8 -12 4 -15 2 -10 -9 3 -8 1 -15
-4 -15 -6 0 -10 5 -10 10 0 13 -54 -14 -81 -41 -21 -21 -26 -49 -8 -49 6 0 9
6 6 14 -5 13 31 31 41 21 9 -9 -9 -55 -22 -55 -25 0 -27 -31 -4 -56 29 -29 60
-34 34 -5 -17 18 -17 20 1 28 15 7 51 9 106 4 5 -1 5 -6 2 -12 -4 -5 -17 -9
-28 -8 -40 3 -57 -1 -57 -12 0 -6 9 -9 20 -6 14 4 20 0 20 -11 -1 -19 -23 -52
-35 -52 -4 0 -2 7 5 15 7 8 10 16 6 16 -6 1 -19 3 -108 15 -32 4 -48 11 -51
22 -4 14 -6 12 -12 -5 -9 -27 -14 -28 -30 -7 -10 15 -15 14 -53 -5 -23 -11
-47 -21 -54 -21 -13 0 -63 -41 -69 -57 -7 -15 -112 -85 -157 -106 -25 -10 -65
-32 -90 -48 -25 -15 -49 -26 -54 -23 -4 3 -15 -2 -24 -10 -9 -9 -28 -15 -43
-14 -19 1 -42 -9 -68 -30 -23 -18 -43 -32 -46 -32 -3 0 -5 14 -5 30 1 17 5 30
10 30 4 0 8 5 8 10 0 6 -31 10 -74 10 -66 0 -77 -3 -111 -30 -21 -16 -42 -30
-47 -30 -6 0 -21 -9 -35 -20 -14 -11 -34 -20 -44 -20 -18 0 -79 46 -79 60 0 8
52 29 135 54 28 8 69 22 92 30 30 11 50 13 67 6 20 -7 24 -6 19 5 -3 9 2 17
13 21 49 17 94 39 94 46 0 12 -15 10 -70 -12 -58 -23 -73 -25 -68 -9 4 13 180
76 248 90 25 5 52 18 60 28 8 11 34 25 58 32 40 12 46 18 76 79 18 37 42 79
54 95 12 15 22 35 22 44 0 9 9 22 20 29 11 7 20 20 20 31 0 10 9 26 20 36 19
18 20 17 20 -3 0 -12 -4 -22 -10 -22 -5 0 -10 -11 -10 -24 0 -14 -4 -27 -10
-31 -5 -3 -7 -12 -4 -20 3 -8 -2 -22 -11 -31 -12 -13 -15 -27 -12 -51 3 -18 2
-31 -2 -28 -10 6 -36 -23 -28 -31 9 -10 150 57 175 83 13 13 27 23 32 23 5 0
12 9 15 20 3 11 18 23 31 26 21 5 24 11 19 31 -5 22 -4 23 15 13 11 -6 20 -7
20 -3 0 4 7 0 15 -11 13 -17 17 -17 47 -5 18 7 42 22 53 32 11 10 34 25 50 32
36 17 76 42 230 144 68 45 69 46 42 55 -15 6 -27 15 -27 22 0 18 17 27 22 12
8 -22 70 49 70 80 1 61 6 71 35 63 20 -6 28 -14 27 -29 0 -12 5 -22 13 -22 18
0 17 -29 -2 -36 -8 -4 -15 -10 -15 -16 0 -12 79 45 115 83 l28 28 -26 23 c-26
24 -44 93 -26 103 17 11 10 41 -11 41 -12 0 -20 -7 -20 -18 0 -15 -4 -16 -26
-8 -36 14 -44 6 -37 -38 7 -48 20 -72 38 -72 8 0 15 -7 15 -15 0 -10 -10 -15
-27 -15 -38 1 -62 37 -66 97 -3 43 -5 48 -27 48 -47 0 -48 41 -2 48 26 4 26 4
5 12 -14 4 -23 16 -23 29 -1 20 -2 19 -20 -6 -18 -23 -23 -25 -49 -15 -23 8
-33 8 -45 -2 -23 -19 -20 -27 15 -41 73 -30 103 -106 59 -150 -23 -23 -75 -26
-115 -8 -27 12 -29 17 -19 43 6 14 9 14 29 -5 27 -25 72 -24 89 3 15 23 -3 51
-36 55 -13 2 -39 16 -57 33 l-32 29 18 28 c10 15 23 36 29 47 7 13 24 21 46
23 29 3 35 7 31 21 -4 16 1 18 29 17 26 -1 34 -6 36 -24 4 -24 30 -30 49 -11
15 15 44 -40 36 -69 -4 -16 -1 -22 10 -22 10 0 13 6 10 19 -8 32 14 33 45 1
27 -27 35 -30 84 -26 33 2 64 -2 81 -11 26 -13 30 -13 43 4 12 16 15 16 24 3
9 -13 12 -13 23 1 50 65 67 79 89 76 27 -5 44 4 118 59 90 68 91 69 88 165 -3
78 -5 85 -23 85 -23 -1 -23 -2 0 104 10 45 14 96 10 128 -3 33 -1 52 5 52 7 0
7 7 -1 21 -7 14 -8 24 -1 31 14 14 32 1 32 -23 0 -23 9 -24 36 -4 27 20 30 19
44 -15 15 -37 36 -39 45 -3 6 24 8 26 16 10 14 -25 26 -21 38 13 5 17 17 33
26 36 8 3 15 12 15 20 0 8 5 14 11 14 12 0 35 -51 44 -101 4 -24 15 -41 31
-50 14 -7 27 -23 30 -35 8 -32 -26 -100 -48 -96 -12 2 -16 -2 -12 -12 3 -8 3
-19 0 -25 -9 -13 -46 -1 -46 15 0 8 -10 14 -25 14 -18 0 -26 -7 -31 -26 -10
-41 -56 -84 -81 -78 -15 4 -25 0 -32 -15 -10 -17 -9 -21 4 -21 8 0 15 5 15 10
0 6 7 10 15 10 18 0 19 -2 1 -45 -10 -24 -22 -35 -35 -35 -12 0 -21 -5 -21
-11 0 -5 5 -7 10 -4 6 3 10 0 10 -7 0 -9 3 -9 10 2 8 12 13 13 29 3 16 -10 18
-9 14 5 -5 20 62 92 85 92 12 0 13 -3 4 -12 -7 -7 -12 -20 -12 -30 0 -11 -10
-29 -22 -42 -13 -12 -31 -39 -40 -59 -10 -20 -21 -37 -26 -37 -4 0 -47 -38
-95 -85 -68 -66 -87 -91 -87 -112 0 -25 6 -21 81 55 76 76 119 101 119 68 0
-7 -9 -25 -20 -39 -11 -14 -20 -31 -20 -38 0 -7 20 17 45 54 48 71 52 83 34
89 -9 3 -9 13 0 41 13 37 31 50 31 22 0 -33 19 -12 25 28 12 73 48 117 95 117
10 0 22 5 26 11 4 8 0 9 -15 4 -15 -4 -21 -2 -21 9 0 20 31 36 50 27 8 -4 26
-5 40 -1 l25 6 -23 13 c-26 14 -21 30 11 32 17 1 18 2 5 6 -10 2 -18 7 -18 9
0 14 31 62 43 67 7 3 28 33 47 68 18 35 36 66 40 69 29 21 33 80 5 80 -17 0
-115 -107 -115 -125 0 -13 -48 -65 -60 -65 -9 0 -40 115 -51 184 -10 60 -9 67
20 131 26 57 31 80 31 146 0 73 2 81 30 112 16 19 44 37 60 41 36 7 56 46 66
128 6 53 6 54 -35 91 -23 20 -45 37 -50 37 -5 0 -19 -13 -30 -29 -38 -53 -131
-45 -131 12 0 12 -6 33 -13 47 -12 23 -19 25 -102 30 -50 3 -96 8 -104 10 -8
3 -24 -13 -40 -40 -24 -39 -26 -48 -15 -70 16 -31 7 -110 -12 -110 -15 0 -92
-78 -100 -102 -7 -22 -52 -24 -61 -2 -3 8 11 48 31 89 l37 74 -15 70 c-8 38
-12 78 -10 89 5 18 -36 63 -68 75 -10 3 -11 9 0 26 16 28 17 27 -20 24 -34 -4
-73 14 -52 23 18 8 -7 54 -29 54 -13 0 -17 5 -12 19 4 14 -4 23 -36 39 -38 19
-44 19 -64 6 -21 -14 -24 -14 -33 3 -10 16 -12 15 -21 -10 -6 -16 -11 -33 -11
-38 0 -11 -29 -66 -60 -114 -10 -16 -28 -61 -40 -98 -12 -38 -29 -82 -39 -98
-26 -43 -130 -149 -147 -149 -19 0 -18 9 7 74 11 31 19 66 17 78 -2 16 5 26
24 36 39 18 67 62 61 94 -4 20 -9 25 -22 20 -14 -5 -14 -4 2 12 9 9 17 24 17
32 0 8 7 14 16 14 11 0 15 -6 11 -20 -3 -11 -2 -20 3 -20 10 0 21 75 14 95 -6
16 -85 75 -101 75 -4 0 -14 -9 -21 -20 -13 -21 -42 -28 -42 -10 0 6 -7 10 -16
10 -8 0 -13 -4 -10 -9 3 -5 -2 -12 -11 -16 -15 -5 -12 -9 15 -27 37 -23 39
-40 13 -115 -12 -35 -14 -54 -7 -56 7 -2 6 -10 -3 -21 -14 -17 -15 -16 -23 4
-4 12 -6 26 -3 30 3 5 -11 14 -30 20 -29 10 -35 16 -35 40 0 25 -5 31 -32 38
-18 5 -36 6 -40 3 -3 -3 -16 -37 -27 -76 -12 -38 -24 -78 -27 -87 -4 -14 -1
-16 13 -11 10 3 26 13 36 21 9 8 19 13 22 11 6 -7 -18 -74 -34 -93 -11 -13
-11 -17 5 -23 12 -4 22 0 32 15 8 12 20 22 26 22 18 -1 61 -38 53 -46 -4 -4
-16 1 -27 11 -18 16 -20 16 -26 1 -9 -22 -5 -25 47 -35 24 -5 38 -9 32 -10 -7
-1 -13 -10 -13 -21 0 -11 -10 -30 -22 -42 -20 -20 -21 -22 -3 -28 16 -6 14 -9
-15 -23 -43 -22 -71 -21 -150 3 -36 11 -84 20 -107 20 -34 0 -41 3 -37 15 4 8
1 15 -4 15 -6 0 -12 -10 -14 -22 -4 -31 -57 -39 -65 -10 -5 21 -75 42 -81 24
-1 -5 -14 -7 -28 -4 -22 4 -25 9 -22 34 5 32 -8 46 -25 29 -6 -6 -15 -11 -19
-11 -13 0 -9 17 8 34 8 9 11 16 6 16 -14 0 -22 39 -10 46 5 3 18 -2 29 -12 23
-20 21 -22 47 38 14 32 17 48 9 51 -19 6 -9 156 13 193 19 34 52 137 49 157
-5 41 1 54 24 50 23 -5 25 -1 36 72 11 67 11 79 -2 92 -22 22 -35 9 -72 -71
-20 -41 -34 -62 -34 -50 -1 18 23 100 43 145 6 13 -7 20 -66 37 -87 26 -121
28 -142 6 -10 -9 -29 -14 -48 -12 -30 3 -34 0 -48 -40 -9 -23 -19 -40 -22 -37
-11 11 11 79 29 92 57 38 61 44 47 73 -15 30 -43 40 -169 64 -44 8 -88 18 -97
21 -14 6 -18 2 -18 -16 0 -13 -5 -31 -10 -39 -10 -16 -13 -8 -10 28 2 34 -19
26 -36 -13 -8 -19 -21 -35 -29 -35 -19 0 -19 21 0 46 8 10 15 22 15 27 0 4
-54 7 -121 7 -111 0 -121 1 -114 18 4 9 14 43 22 74 14 53 14 60 -2 84 l-17
27 -13 -29 c-14 -34 -72 -87 -86 -78 -5 3 -9 41 -9 85 0 79 -12 105 -23 50 -8
-38 -80 -114 -104 -109 -15 3 -19 15 -21 68 -2 43 -9 71 -20 83 -9 11 -16 28
-14 39 4 20 -14 48 -29 48 -5 0 -9 -11 -9 -25z m-132 -255 c2 -6 8 -8 12 -5
11 7 53 -33 46 -44 -3 -4 8 -5 24 -3 42 6 58 -28 35 -77 -10 -20 -23 -47 -29
-61 -15 -32 -60 -39 -75 -12 -5 10 -12 31 -15 45 -7 39 -14 47 -42 47 -30 0
-30 -3 2 -46 24 -30 24 -34 8 -34 -26 1 -58 28 -83 70 -20 34 -21 34 -21 9 0
-31 34 -113 61 -148 23 -29 24 -41 4 -67 -14 -17 -14 -17 -9 -1 5 13 -5 31
-34 60 -58 61 -75 100 -70 164 5 55 30 95 73 114 25 11 109 2 113 -11z m250
-120 c40 -38 70 -43 117 -19 33 17 47 19 62 10 25 -13 20 -57 -8 -72 -11 -5
-19 -18 -19 -28 0 -22 -22 -43 -35 -33 -6 4 -16 15 -24 25 -12 15 -11 20 5 39
l19 21 -37 -7 c-49 -9 -91 2 -83 22 3 8 -3 21 -15 29 -20 14 -27 33 -12 33 5
0 18 -9 30 -20z m412 11 c0 -12 -20 -25 -27 -18 -7 7 6 27 18 27 5 0 9 -4 9
-9z m-180 -25 c0 -3 -4 -8 -10 -11 -5 -3 -10 -1 -10 4 0 6 5 11 10 11 6 0 10
-2 10 -4z m100 -36 c28 -15 8 -67 -34 -84 -42 -17 -48 -28 -76 -121 -14 -44
-30 -91 -37 -105 -16 -31 -17 -84 -2 -109 7 -10 9 -30 5 -45 -23 -90 -118 20
-99 115 9 49 90 268 109 296 8 14 34 33 57 44 49 22 52 22 77 9z m-655 -20 c3
-5 1 -10 -4 -10 -6 0 -11 5 -11 10 0 6 2 10 4 10 3 0 8 -4 11 -10z m737 -11
c24 -13 48 -67 48 -111 0 -31 -59 -214 -96 -297 -22 -50 -69 -81 -122 -81 -46
0 -47 2 -31 48 6 19 19 32 31 34 32 5 54 43 99 172 41 119 45 172 14 160 -19
-8 -19 1 2 48 18 41 24 44 55 27z m-812 -96 c0 -17 6 -34 13 -36 8 -4 6 -6 -4
-6 -9 -1 -24 8 -33 18 -14 16 -15 23 -6 41 9 16 8 25 -1 36 -19 23 -53 13 -57
-16 -2 -14 -11 -30 -19 -37 -14 -11 -13 -13 9 -22 13 -5 38 -21 55 -35 59 -50
117 -59 170 -26 34 21 59 84 48 120 -4 11 -2 20 4 20 10 0 15 -14 24 -75 11
-68 -61 -145 -136 -145 -45 0 -69 11 -120 56 -21 19 -48 34 -62 34 -35 0 -47
48 -17 68 12 8 22 25 22 37 0 25 15 41 45 47 28 7 65 -38 65 -79z m148 49 c-4
-22 -46 -28 -54 -8 -4 9 -1 23 6 31 16 19 53 1 48 -23z m336 -4 c-3 -4 -11 -5
-18 -2 -8 3 -18 -7 -26 -25 -13 -33 -30 -41 -30 -16 0 8 5 15 10 15 6 0 10 6
10 13 0 7 7 23 16 35 15 22 17 22 29 5 7 -10 11 -21 9 -25z m-111 -24 c20 -7
10 -41 -14 -47 -16 -4 -18 -11 -13 -31 6 -25 4 -26 -35 -26 -48 0 -52 11 -12
41 16 11 35 32 42 45 14 27 12 26 32 18z m-235 -37 c2 -12 -3 -17 -17 -17 -23
0 -24 1 -15 25 8 19 28 15 32 -8z m898 -34 c-10 -10 -19 5 -10 18 6 11 8 11
12 0 2 -7 1 -15 -2 -18z m-325 -30 c-23 -16 -27 -7 -11 23 13 23 15 24 21 7 4
-11 0 -22 -10 -30z m253 16 c4 6 12 11 18 11 6 0 -5 -16 -25 -37 -20 -20 -37
-40 -37 -45 0 -11 38 -10 45 2 14 22 22 7 20 -37 -1 -26 -7 -49 -13 -51 -6 -2
-26 -31 -43 -65 -17 -34 -33 -64 -35 -66 -2 -2 -15 4 -30 13 -30 20 -28 37 14
126 14 30 25 66 23 79 -1 13 2 33 7 45 6 12 13 30 17 41 6 19 7 19 19 -4 9
-15 16 -20 20 -12z m-293 -62 c-10 -9 -11 -8 -5 6 3 10 9 15 12 12 3 -3 0 -11
-7 -18z m-371 -37 c0 -5 -5 -10 -11 -10 -5 0 -7 5 -4 10 3 6 8 10 11 10 2 0 4
-4 4 -10z m1 -55 c28 -9 11 -28 -21 -23 -24 4 -29 0 -34 -25 -7 -35 -30 -31
-33 6 -1 18 3 27 13 27 8 0 14 4 14 9 0 5 8 17 18 27 15 16 17 16 20 1 2 -9
12 -19 23 -22z m-151 -5 c0 -11 -6 -20 -13 -20 -21 0 -27 11 -14 26 17 19 27
17 27 -6z m-60 -60 c0 -5 -4 -10 -10 -10 -5 0 -10 5 -10 10 0 6 5 10 10 10 6
0 10 -4 10 -10z m-30 -30 c0 -5 -4 -10 -10 -10 -5 0 -10 5 -10 10 0 6 5 10 10
10 6 0 10 -4 10 -10z m1240 -29 c12 -23 -1 -35 -29 -26 -10 3 -24 -1 -31 -10
-7 -8 -16 -12 -21 -10 -12 8 1 35 16 35 7 0 15 7 19 15 8 21 33 19 46 -4z
m-1033 -7 c3 -8 12 -13 19 -10 8 3 14 3 14 1 0 -13 -27 -62 -40 -72 -13 -11
-12 -12 8 -13 12 0 22 6 22 13 0 6 12 13 26 14 15 0 31 7 36 15 8 10 11 10 15
0 2 -7 11 -18 18 -26 14 -14 9 -56 -6 -56 -5 0 -9 9 -9 20 0 11 -7 20 -15 20
-8 0 -15 -7 -15 -15 0 -11 -7 -14 -22 -11 -55 12 -66 10 -86 -14 -19 -23 -21
-24 -28 -7 -4 12 2 36 16 63 12 25 19 52 16 60 -3 9 -4 20 0 25 8 14 24 11 31
-7z m-311 -25 c6 -10 -10 -34 -24 -34 -4 -1 -17 -6 -29 -13 -29 -16 -29 -3 -2
32 21 27 43 33 55 15z m514 -19 c9 -17 8 -20 -14 -20 -27 0 -41 14 -31 30 10
17 34 11 45 -10z m664 -4 c33 -30 33 -36 -4 -36 -27 0 -30 3 -30 30 0 36 2 37
34 6z m-261 -24 c-3 -12 -9 -22 -14 -22 -5 0 -4 -9 3 -20 7 -10 9 -22 5 -26
-9 -10 -87 46 -87 62 0 17 41 19 57 3 8 -8 14 -5 23 11 14 26 21 22 13 -8z
m-1043 -1 c0 -10 -39 -59 -40 -49 0 17 20 58 30 58 5 0 10 -4 10 -9z m2407
-27 c-3 -3 -12 -4 -19 -1 -8 3 -5 6 6 6 11 1 17 -2 13 -5z m88 -33 c5 -4 42
-20 80 -36 39 -15 73 -31 77 -34 4 -4 -2 -22 -14 -41 l-22 -35 -5 28 c-4 16
-18 35 -36 45 -53 32 -65 34 -75 9 -5 -12 -20 -50 -33 -84 l-25 -61 44 -22
c23 -13 50 -20 58 -17 16 6 43 -29 32 -41 -3 -3 -6 0 -6 6 0 22 -20 12 -32
-15 l-11 -28 -6 24 c-6 22 -61 61 -87 61 -12 0 -60 -109 -56 -127 2 -7 -1 -13
-6 -13 -12 0 -22 -35 -13 -47 24 -34 94 -56 118 -37 10 7 21 14 26 14 9 0 -19
-56 -33 -65 -11 -7 -220 84 -220 95 0 4 8 10 18 12 17 5 52 76 153 311 28 65
31 81 21 97 -7 11 -12 22 -12 25 0 5 49 -13 65 -24z m-330 -30 c-3 -6 -14 -11
-23 -11 -15 1 -15 2 2 15 21 16 32 13 21 -4z m-2345 -31 c0 -5 -2 -10 -4 -10
-3 0 -8 5 -11 10 -3 6 -1 10 4 10 6 0 11 -4 11 -10z m548 -4 c-2 -1 -12 -8
-22 -16 -18 -14 -18 -14 -6 7 8 12 18 19 23 16 4 -3 7 -6 5 -7z m772 -26 c0
-5 -4 -10 -10 -10 -5 0 -10 5 -10 10 0 6 5 10 10 10 6 0 10 -4 10 -10z m-60
-46 c0 -8 -5 -12 -10 -9 -6 4 -8 11 -5 16 9 14 15 11 15 -7z m2020 -4 c0 -5 8
-10 17 -10 9 0 13 -3 10 -7 -10 -10 23 -43 43 -43 10 0 29 -9 43 -20 14 -11
31 -20 39 -20 8 0 23 -7 34 -15 19 -15 19 -15 -3 -34 -16 -14 -23 -30 -22 -57
0 -74 -5 -99 -22 -99 -10 0 -32 -14 -51 -31 l-35 -32 2 -117 2 -116 -24 6
c-14 3 -31 1 -39 -6 -12 -10 -18 -8 -31 11 -14 20 -17 21 -25 6 -8 -15 -38
-23 -38 -10 0 13 24 50 42 65 17 13 19 23 13 57 -4 23 -11 42 -16 42 -5 0 -9
8 -9 17 0 34 -38 -19 -52 -72 -7 -27 -20 -58 -28 -67 -20 -24 -43 -23 -35 1 4
14 -1 21 -25 29 -16 6 -30 15 -30 19 0 4 12 46 26 93 14 47 35 117 46 155 11
39 26 88 33 110 8 22 19 59 25 83 11 42 16 46 58 42 12 -1 25 6 28 14 7 18 24
22 24 6z m-1880 -40 c-18 -11 -24 -6 -16 16 5 14 9 15 19 5 9 -9 9 -14 -3 -21z
m-150 4 c0 -8 -4 -12 -10 -9 -5 3 -10 10 -10 16 0 5 5 9 10 9 6 0 10 -7 10
-16z m65 -34 c-3 -6 -15 -10 -26 -10 -11 0 -19 -7 -19 -16 0 -22 -44 -14 -48
9 -3 14 1 18 15 15 10 -2 29 7 43 19 21 19 26 20 33 8 4 -8 5 -20 2 -25z
m-400 -20 c-3 -5 -12 -10 -18 -10 -7 0 -6 4 3 10 19 12 23 12 15 0z m-205 -20
c0 -5 -2 -10 -4 -10 -3 0 -8 5 -11 10 -3 6 -1 10 4 10 6 0 11 -4 11 -10z
m-150 -30 c12 -7 12 -12 -4 -29 -22 -25 -36 -27 -36 -6 0 9 -6 12 -16 8 -12
-4 -15 -2 -12 8 3 8 12 13 21 13 9 -1 14 2 11 7 -7 12 17 11 36 -1z m1080 -20
c0 -13 -7 -20 -20 -20 -23 0 -26 10 -8 28 18 18 28 15 28 -8z m1193 13 c-7 -2
-19 -2 -25 0 -7 3 -2 5 12 5 14 0 19 -2 13 -5z m-1050 -68 c4 -8 1 -17 -5 -21
-13 -8 29 -28 51 -25 10 2 12 -5 7 -30 -9 -47 -22 -56 -46 -34 -11 10 -20 15
-20 11 0 -4 -7 0 -16 8 -20 20 -55 21 -48 2 4 -10 -1 -14 -14 -13 -23 1 -17
21 15 53 16 16 16 16 -5 9 -26 -7 -52 9 -52 32 0 13 3 13 15 3 11 -9 15 -9 15
-1 0 8 6 9 18 2 12 -6 25 -5 42 5 32 17 37 17 43 -1z m-1093 -15 c0 -19 -11
-26 -23 -14 -8 8 3 34 14 34 5 0 9 -9 9 -20z m1305 -10 c3 -5 -3 -10 -15 -10
-12 0 -18 5 -15 10 3 6 10 10 15 10 5 0 12 -4 15 -10z m-1595 -4 c0 -3 -4 -8
-10 -11 -5 -3 -10 -1 -10 4 0 6 5 11 10 11 6 0 10 -2 10 -4z m1120 0 c0 -11
-19 -15 -25 -6 -3 5 1 10 9 10 9 0 16 -2 16 -4z m513 -33 c5 -3 6 -14 4 -25
-4 -15 -1 -18 13 -13 13 4 19 -1 23 -22 6 -33 0 -43 -14 -23 -9 13 -10 12 -5
-2 3 -10 1 -20 -5 -24 -6 -3 -13 3 -16 15 -8 32 -46 37 -88 11 -19 -12 -35
-29 -35 -38 0 -13 3 -11 16 6 19 27 57 31 47 5 -13 -34 -63 -68 -63 -42 0 6
-9 8 -22 4 -15 -4 -19 -3 -10 3 13 9 6 45 -8 37 -13 -8 -6 51 9 69 7 9 25 16
38 16 17 0 27 7 30 21 5 18 11 20 42 14 20 -4 40 -9 44 -12z m-393 -13 c0 -13
-5 -18 -15 -14 -12 5 -13 10 -4 20 15 19 19 18 19 -6z m558 -12 c-6 -18 -28
-21 -28 -4 0 9 7 16 16 16 9 0 14 -5 12 -12z m-592 -56 c-12 -13 -18 -13 -30
-2 -24 19 -19 27 15 22 28 -4 29 -6 15 -20z m1191 17 c9 -9 26 -9 68 -1 70 14
85 8 85 -32 0 -26 45 -180 76 -259 6 -17 4 -16 -30 2 -20 12 -38 21 -40 21 -2
0 -9 -14 -15 -32 -8 -23 -14 -29 -22 -21 -8 8 -7 20 4 42 15 30 15 31 -13 51
-15 11 -35 17 -44 14 -17 -7 -22 11 -6 21 18 11 11 21 -25 38 -19 9 -35 21
-35 27 0 5 -13 10 -29 10 -32 0 -59 24 -41 35 8 5 5 11 -7 20 -15 11 -15 15
-4 29 7 9 22 16 32 16 11 0 19 7 19 15 0 18 12 19 27 4z m-2297 -29 c0 -5 -7
-10 -16 -10 -8 0 -12 5 -9 10 3 6 10 10 16 10 5 0 9 -4 9 -10z m1338 -16 c-9
-9 -21 -13 -28 -9 -14 9 5 25 30 25 12 0 12 -3 -2 -16z m357 -14 c-5 -8 -11
-8 -17 -2 -6 6 -7 16 -3 22 5 8 11 8 17 2 6 -6 7 -16 3 -22z m265 6 c0 -14
-29 -31 -38 -22 -2 3 -2 12 1 21 8 19 37 20 37 1z m-815 -26 c3 -5 1 -10 -4
-10 -6 0 -11 5 -11 10 0 6 2 10 4 10 3 0 8 -4 11 -10z m465 -16 c0 -2 -7 -4
-15 -4 -8 0 -15 4 -15 10 0 5 7 7 15 4 8 -4 15 -8 15 -10z m-2090 -48 c12 -27
20 -64 19 -93 0 -26 -3 -42 -6 -35 -8 20 -33 14 -33 -8 0 -11 -7 -23 -15 -27
-25 -9 -30 5 -10 28 17 17 17 22 5 30 -13 8 -13 10 -1 18 11 7 14 26 12 70 -1
34 0 61 3 61 3 0 15 -20 26 -44z m950 -18 c0 -20 -20 -24 -37 -7 -8 8 -7 16 5
30 17 20 32 10 32 -23z m1550 32 c0 -5 -5 -10 -11 -10 -5 0 -7 5 -4 10 3 6 8
10 11 10 2 0 4 -4 4 -10z m-1753 -36 c2 -6 -8 -14 -22 -16 -24 -5 -34 9 -18
26 10 10 36 3 40 -10z m1228 -4 c0 -7 -6 -15 -12 -17 -8 -3 -13 4 -13 17 0 13
5 20 13 18 6 -3 12 -11 12 -18z m525 -4 c0 -3 -4 -8 -10 -11 -5 -3 -10 -1 -10
4 0 6 5 11 10 11 6 0 10 -2 10 -4z m-1480 -24 c0 -27 38 -55 66 -48 36 9 39 8
39 -22 0 -20 4 -26 18 -24 9 2 17 -3 17 -11 0 -22 -11 -27 -34 -15 -11 7 -24
11 -28 10 -4 -1 -23 14 -41 33 -37 38 -57 44 -57 18 0 -15 -2 -16 -10 -3 -13
21 -12 54 2 68 17 17 28 15 28 -6z m-340 -2 c0 -5 -4 -10 -10 -10 -5 0 -10 5
-10 10 0 6 5 10 10 10 6 0 10 -4 10 -10z m1180 -4 c0 -3 -4 -8 -10 -11 -5 -3
-10 -1 -10 4 0 6 5 11 10 11 6 0 10 -2 10 -4z m910 -46 c0 -5 -5 -10 -11 -10
-5 0 -7 5 -4 10 3 6 8 10 11 10 2 0 4 -4 4 -10z m-2090 -9 c0 -5 -6 -11 -12
-14 -9 -3 -7 -9 7 -20 26 -20 13 -32 -17 -15 -30 17 -37 28 -31 45 6 15 53 18
53 4z m-450 -34 c0 -12 -31 -36 -47 -37 -7 0 -13 11 -13 23 0 20 5 24 30 24
17 0 30 -5 30 -10z m493 -7 c-3 -11 -7 -20 -9 -20 -2 0 -4 9 -4 20 0 11 4 20
9 20 5 0 7 -9 4 -20z m113 -22 c-1 -22 -7 -34 -19 -36 -18 -4 -23 21 -11 52
11 29 32 18 30 -16z m2295 6 c12 -30 10 -44 -6 -44 -8 0 -15 9 -15 19 0 11 -9
23 -20 26 -26 8 -18 22 11 20 13 -1 26 -10 30 -21z m-1051 8 c0 -13 -12 -22
-22 -16 -10 6 -1 24 13 24 5 0 9 -4 9 -8z m50 -18 c0 -18 -14 -18 -29 0 -9 11
-9 15 1 19 17 6 28 -1 28 -19z m-1043 -16 c-3 -8 -6 -5 -6 6 -1 11 2 17 5 13
3 -3 4 -12 1 -19z m949 14 c5 -4 16 -22 23 -40 8 -18 19 -36 25 -40 12 -8 51
-112 68 -182 8 -32 7 -45 -1 -48 -14 -5 -15 -42 -1 -42 6 0 10 6 10 13 0 6 5
4 11 -5 5 -10 17 -18 25 -18 10 0 14 -8 12 -22 -2 -17 -10 -23 -28 -23 -16 0
-26 -7 -28 -19 -2 -11 0 -16 6 -12 18 11 27 -16 33 -104 7 -85 -1 -148 -26
-205 -21 -48 -38 -145 -32 -183 5 -25 3 -32 -7 -29 -7 3 -23 -3 -36 -13 -13
-10 -30 -15 -38 -12 -16 5 -11 -22 10 -65 13 -27 24 -29 44 -8 9 8 21 15 27
15 7 0 4 -5 -5 -11 -10 -5 -18 -17 -18 -24 0 -24 -57 -19 -70 5 -6 11 -16 18
-21 14 -7 -4 -7 -10 -1 -16 13 -13 -16 -48 -35 -41 -8 3 -11 0 -8 -8 5 -15
-48 -79 -65 -79 -5 0 -10 -4 -10 -9 0 -14 28 -33 39 -26 16 9 10 -63 -6 -76
-7 -6 -13 -27 -13 -45 0 -23 -5 -34 -14 -34 -18 0 -15 68 3 79 7 5 9 15 5 26
-5 13 -4 16 4 11 7 -4 12 -2 12 4 0 18 -29 23 -47 9 -14 -12 -15 -11 -9 9 9
29 -14 30 -39 2 -11 -12 -31 -20 -52 -20 -30 0 -33 3 -33 31 0 18 -4 28 -10
24 -6 -4 -8 -11 -5 -16 4 -5 2 -9 -3 -9 -6 0 -8 -17 -5 -40 4 -26 2 -40 -6
-40 -6 0 -11 7 -11 16 0 11 -5 14 -16 10 -12 -5 -14 -1 -9 15 8 25 8 25 -67
-19 -32 -19 -58 -38 -58 -43 0 -5 -8 -8 -17 -7 -10 2 -44 -6 -75 -16 -43 -15
-58 -25 -63 -43 -6 -25 -35 -32 -35 -8 0 12 -9 13 -45 8 -33 -4 -51 -1 -70 11
-14 9 -25 14 -25 11 0 -4 -7 1 -17 10 -9 9 -35 28 -57 42 -23 14 -53 37 -68
50 -24 23 -26 30 -21 78 4 33 1 55 -6 59 -14 9 -15 46 -1 46 6 0 10 6 10 14 0
7 9 16 21 19 12 3 18 10 15 15 -11 18 20 41 84 60 36 11 100 36 144 56 43 20
87 36 97 36 27 0 25 -43 -3 -64 l-23 -17 25 7 c32 8 50 23 50 40 0 21 31 33
52 20 14 -8 21 -8 27 3 7 10 13 11 30 1 18 -9 26 -9 39 2 14 11 15 11 9 -5 -5
-13 2 -23 26 -37 17 -11 37 -22 42 -24 6 -2 7 -7 3 -11 -4 -5 -26 -1 -48 8
-22 8 -40 11 -40 6 0 -5 8 -12 18 -15 9 -3 27 -11 39 -16 16 -8 26 -8 35 0 9
7 19 7 28 2 13 -8 12 -10 -2 -10 -11 0 -15 -6 -11 -20 3 -11 9 -20 14 -20 15
0 10 -42 -10 -98 -20 -53 -10 -74 12 -24 7 15 19 38 28 52 9 14 22 50 29 80
10 42 22 63 51 91 22 20 39 43 39 52 0 10 4 17 8 17 5 0 26 26 48 58 21 31 50
68 63 82 28 29 33 65 18 130 -12 52 -51 126 -72 134 -9 3 -15 19 -15 41 0 19
-4 35 -10 35 -5 0 -10 7 -10 15 0 9 -6 26 -14 38 -19 30 -22 58 -9 82 6 11 14
74 16 140 3 66 6 121 6 122 5 11 102 16 117 5z m-1316 -11 c0 -6 -5 -13 -11
-16 -6 -4 -8 -13 -5 -20 3 -8 -5 -15 -20 -18 -29 -5 -31 8 -4 25 11 7 20 18
20 25 0 7 5 13 10 13 6 0 10 -4 10 -9z m220 1 c0 -14 -49 -52 -55 -43 -3 5 2
11 10 15 8 3 15 12 15 21 0 8 7 15 15 15 8 0 15 -4 15 -8z m2099 -6 c8 -10 9
-16 1 -21 -13 -8 -30 3 -30 21 0 18 14 18 29 0z m-714 -6 c3 -5 1 -10 -4 -10
-6 0 -11 5 -11 10 0 6 2 10 4 10 3 0 8 -4 11 -10z m-1330 -52 c-6 -50 -10 -55
-30 -38 -13 11 -13 15 -3 21 10 7 10 9 1 9 -7 0 -13 5 -13 11 0 5 4 8 9 4 6
-3 15 4 21 15 16 31 21 24 15 -22z m1825 32 c0 -5 -4 -10 -10 -10 -5 0 -10 5
-10 10 0 6 5 10 10 10 6 0 10 -4 10 -10z m-2740 -50 c1 -14 2 -32 1 -40 -3
-33 -21 15 -21 55 1 43 16 31 20 -15z m2046 23 c-10 -10 -19 5 -10 18 6 11 8
11 12 0 2 -7 1 -15 -2 -18z m114 17 c0 -5 -4 -10 -10 -10 -5 0 -10 5 -10 10 0
6 5 10 10 10 6 0 10 -4 10 -10z m60 -21 c0 -11 -4 -18 -10 -14 -5 3 -7 12 -3
20 7 21 13 19 13 -6z m-94 -46 c-11 -11 -19 6 -11 24 8 17 8 17 12 0 3 -10 2
-21 -1 -24z m663 5 c12 -27 12 -32 -2 -43 -10 -7 -17 -17 -17 -22 0 -5 -12
-16 -26 -23 -22 -12 -27 -12 -35 0 -8 12 -9 10 -4 -6 3 -13 -1 -26 -10 -34 -8
-7 -13 -16 -10 -20 6 -10 -32 -97 -46 -106 -6 -3 -8 -13 -5 -21 4 -8 1 -34 -5
-57 -6 -22 -10 -42 -8 -42 2 -1 -5 -12 -16 -24 -11 -12 -19 -24 -17 -26 1 -2
-1 -3 -5 -1 -5 1 -7 5 -5 10 1 4 -4 7 -12 7 -21 0 -31 21 -15 31 12 8 11 11
-3 20 -10 5 -18 19 -18 29 0 11 -7 20 -15 20 -8 0 -15 5 -15 10 0 6 8 10 17
10 13 0 14 3 5 12 -14 14 2 48 23 48 27 0 100 86 116 136 9 30 22 50 32 52 10
2 17 -3 17 -12 0 -25 17 -19 24 9 4 14 14 25 22 25 12 0 15 6 10 25 -9 35 6
31 23 -7z m-1779 -13 c11 -13 10 -14 -4 -9 -9 3 -16 10 -16 15 0 13 6 11 20
-6z m1604 6 c3 -5 -3 -11 -14 -14 -20 -5 -26 3 -13 16 9 10 21 9 27 -2z m-15
-72 c3 -24 3 -24 -18 -5 -11 10 -18 23 -15 28 10 16 29 2 33 -23z m-2571 -31
c3 -30 6 -35 23 -31 23 6 24 -4 3 -28 -14 -16 -15 -25 -4 -69 11 -47 9 -72 -6
-58 -9 10 -33 111 -40 172 -6 48 -4 58 7 54 8 -2 15 -21 17 -40z m136 -31
c-18 -78 -40 -93 -29 -19 6 43 31 99 40 90 2 -2 -3 -34 -11 -71z m2670 49 c-6
-16 -24 -23 -24 -8 0 10 22 33 27 28 2 -2 1 -11 -3 -20z m-294 -27 c0 -11 -6
-22 -14 -25 -8 -3 -12 -12 -10 -19 3 -7 1 -16 -4 -19 -6 -3 -12 1 -16 9 -8 21
-33 19 -45 -3 -5 -10 -11 -36 -13 -58 -2 -22 -8 -45 -12 -52 -5 -8 -2 -18 9
-26 12 -8 15 -19 9 -40 -5 -23 -10 -27 -31 -21 -14 3 -31 1 -39 -6 -9 -7 -14
-8 -14 -1 0 21 13 42 25 42 10 0 12 15 8 59 -4 38 -2 61 6 65 6 4 11 16 11 27
0 13 11 25 33 34 17 7 43 25 56 39 26 28 41 26 41 -5z m80 1 c0 -5 -4 -10 -9
-10 -6 0 -13 5 -16 10 -3 6 1 10 9 10 9 0 16 -4 16 -10z m-40 -20 c0 -5 -7
-10 -16 -10 -8 0 -12 5 -9 10 3 6 10 10 16 10 5 0 9 -4 9 -10z m-2590 -25 c0
-8 -2 -15 -4 -15 -2 0 -6 7 -10 15 -3 8 -1 15 4 15 6 0 10 -7 10 -15z m2826
-30 c7 -30 -1 -55 -17 -55 -7 0 -10 3 -6 6 3 3 1 17 -4 31 -5 14 -7 29 -3 34
10 17 24 9 30 -16z m-2939 -2 c4 -10 10 -21 15 -24 5 -3 10 -16 13 -28 2 -13
9 -29 16 -37 9 -11 8 -14 -5 -14 -9 0 -16 8 -16 21 0 11 -4 18 -8 15 -8 -5
-42 55 -42 74 0 17 20 11 27 -7z m262 -116 c0 -52 -5 -100 -10 -108 -9 -15
-10 -12 -15 61 -2 33 15 140 23 140 2 0 3 -42 2 -93z m-131 40 c2 -10 -3 -17
-12 -17 -10 0 -16 9 -16 21 0 24 23 21 28 -4z m1622 -42 c0 -28 -21 -68 -30
-59 -12 12 7 87 21 79 5 -4 9 -12 9 -20z m-1554 -32 c3 -16 10 -41 15 -57 11
-36 11 -46 1 -46 -10 0 -42 87 -42 113 0 27 19 20 26 -10z m2809 17 c3 -5 1
-10 -4 -10 -6 0 -11 5 -11 10 0 6 2 10 4 10 3 0 8 -4 11 -10z m-400 -40 c3 -5
-1 -10 -9 -10 -9 0 -16 5 -16 10 0 6 4 10 9 10 6 0 13 -4 16 -10z m-35 -60 c9
-17 7 -26 -12 -50 -27 -34 -54 -38 -63 -9 -9 29 4 38 21 15 17 -24 21 -21 27
24 7 50 10 52 27 20z m89 1 c13 -10 21 -24 18 -32 -4 -10 -6 -9 -6 4 -1 9 -5
17 -9 17 -5 0 -7 -12 -4 -28 2 -19 -4 -35 -22 -55 -40 -43 -65 -32 -58 26 3
27 9 37 22 37 13 0 17 -5 13 -20 -3 -11 -1 -20 5 -20 14 0 23 43 12 54 -12 12
-13 36 -2 36 4 0 18 -9 31 -19z m-839 0 c0 -6 -4 -13 -10 -16 -5 -3 -10 1 -10
9 0 9 5 16 10 16 6 0 10 -4 10 -9z m1086 -60 c-8 -13 -36 -15 -36 -3 0 4 5 13
12 20 14 14 34 0 24 -17z m-876 10 c0 -6 -4 -13 -10 -16 -5 -3 -10 1 -10 9 0
9 5 16 10 16 6 0 10 -4 10 -9z m-325 -32 c-10 -15 -25 -10 -19 6 4 8 10 12 15
9 5 -3 7 -10 4 -15z m1195 -19 c0 -5 -2 -10 -4 -10 -3 0 -8 5 -11 10 -3 6 -1
10 4 10 6 0 11 -4 11 -10z m-380 -34 c0 -3 -4 -8 -10 -11 -5 -3 -10 -1 -10 4
0 6 5 11 10 11 6 0 10 -2 10 -4z m-1733 -72 c-3 -20 1 -27 19 -34 28 -11 30
-23 7 -41 -9 -8 -14 -9 -10 -2 4 7 -1 14 -13 18 -11 3 -20 13 -20 21 0 8 -7
14 -15 14 -21 0 -19 38 3 43 32 9 34 7 29 -19z m843 17 c0 -12 -20 -25 -27
-18 -7 7 6 27 18 27 5 0 9 -4 9 -9z m180 -51 c0 -5 -5 -10 -11 -10 -5 0 -7 5
-4 10 3 6 8 10 11 10 2 0 4 -4 4 -10z m-1075 -32 c-9 -42 -14 -50 -26 -43 -13
9 -11 49 3 63 21 21 30 13 23 -20z m1029 -13 c-4 -8 -10 -15 -14 -15 -4 0 -7
-6 -6 -12 2 -20 -19 -21 -23 -2 -2 10 5 24 15 31 24 17 35 17 28 -2z m-64 1
c0 -11 -19 -15 -25 -6 -3 5 1 10 9 10 9 0 16 -2 16 -4z m173 -26 c3 -11 1 -20
-4 -20 -5 0 -9 9 -9 20 0 11 2 20 4 20 2 0 6 -9 9 -20z m-1108 -10 c-3 -5 -12
-10 -18 -10 -7 0 -6 4 3 10 19 12 23 12 15 0z m3042 -71 c9 -57 8 -63 -11 -67
-10 -2 -42 -19 -70 -37 -29 -18 -73 -43 -99 -55 -26 -12 -47 -26 -47 -31 0
-12 -67 -11 -91 1 -26 14 -24 38 4 49 12 5 37 21 56 35 19 14 39 26 43 26 5 0
22 10 38 21 19 15 37 20 56 16 33 -6 56 1 48 15 -7 11 46 59 60 55 5 -2 11
-14 13 -28z m-3161 -14 c-10 -8 -23 -12 -29 -8 -11 7 12 23 33 23 12 -1 11 -4
-4 -15z m219 -13 c-8 -8 -25 10 -19 20 4 6 9 5 15 -3 4 -7 6 -15 4 -17z m-122
-47 c-9 -30 -9 -37 3 -42 21 -8 17 -19 -6 -19 -16 0 -20 7 -20 33 0 18 5 33
11 33 7 0 9 10 4 28 -5 21 -4 24 6 15 10 -10 10 -21 2 -48z m60 -12 c-3 -14
-1 -23 6 -23 6 0 11 -7 11 -16 0 -27 -25 -9 -30 22 -8 38 -1 71 11 52 4 -7 6
-23 2 -35z m1972 28 c3 -5 1 -12 -5 -16 -5 -3 -10 1 -10 9 0 18 6 21 15 7z
m-2180 -22 c11 -17 -1 -21 -15 -4 -8 9 -8 15 -2 15 6 0 14 -5 17 -11z m2115
-54 c0 -32 -4 -45 -14 -45 -11 0 -14 12 -13 45 3 62 27 62 27 0z m1124 23 c3
-13 6 -39 6 -58 0 -32 -4 -36 -47 -54 -26 -11 -57 -30 -69 -43 -12 -13 -35
-26 -50 -29 -15 -3 -35 -9 -45 -14 -10 -6 -31 -10 -46 -10 -16 0 -33 -4 -38
-9 -6 -6 -46 -24 -90 -41 -44 -18 -89 -41 -101 -51 -26 -25 -54 -25 -54 0 0
20 84 101 105 101 7 0 18 6 24 14 7 8 47 28 89 45 42 17 91 45 109 61 18 17
36 30 40 30 5 0 26 9 48 20 22 11 44 20 51 20 6 0 19 9 29 20 23 26 31 25 39
-2z m-1000 3 c3 -5 24 -7 46 -4 34 5 39 3 34 -11 -3 -9 -11 -13 -16 -10 -11 7
-58 -14 -71 -31 -4 -6 -10 -1 -13 12 -7 26 -24 21 -24 -8 0 -10 -4 -19 -10
-19 -5 0 -10 11 -10 25 0 14 -4 25 -10 25 -5 0 -10 -11 -10 -25 0 -39 -25 -30
-28 10 -2 36 -2 36 38 33 22 -1 43 1 46 5 10 10 22 9 28 -2z m-1839 -40 c-3
-12 -11 -21 -17 -21 -5 0 -7 7 -4 16 3 9 6 23 6 32 0 12 3 13 11 5 6 -6 8 -20
4 -32z m-585 -7 c0 -8 -5 -12 -10 -9 -6 4 -8 11 -5 16 9 14 15 11 15 -7z
m2497 -16 c-3 -8 -6 -5 -6 6 -1 11 2 17 5 13 3 -3 4 -12 1 -19z m153 -36 c0
-15 -11 -21 -27 -15 -12 5 -12 7 -1 14 17 11 28 11 28 1z m-753 -24 c-3 -8 -6
-5 -6 6 -1 11 2 17 5 13 3 -3 4 -12 1 -19z m423 3 c0 -12 -20 -25 -27 -18 -7
7 6 27 18 27 5 0 9 -4 9 -9z m-575 -28 c-5 -10 -7 -24 -6 -30 1 -7 -2 -13 -6
-13 -5 0 -17 -16 -27 -35 -11 -19 -25 -35 -33 -35 -7 0 -13 2 -13 5 0 11 26
51 49 78 14 15 21 27 17 27 -5 0 -3 7 4 15 16 19 25 12 15 -12z m-1755 -56 c0
-10 13 -32 30 -50 29 -31 41 -77 20 -77 -5 0 -6 -8 -3 -17 14 -37 -46 45 -75
103 -29 58 -30 62 -14 82 l17 21 12 -22 c7 -12 12 -30 13 -40z m328 -6 c67
-36 100 -43 223 -48 90 -4 132 -10 140 -20 6 -7 16 -13 21 -13 5 0 14 -4 21
-10 74 -61 101 -80 113 -80 8 0 14 -4 14 -9 0 -5 8 -7 19 -4 27 7 38 -17 15
-34 -35 -26 -263 -1 -332 36 -12 6 -39 11 -60 9 -34 -3 -37 -1 -40 26 -2 16
-7 25 -10 19 -12 -19 -81 16 -88 44 -5 18 -9 21 -15 12 -6 -11 -14 -9 -36 7
-32 24 -41 53 -21 65 16 11 15 11 36 0z m2238 -21 c16 0 18 -9 5 -28 -7 -12
-12 -12 -30 -1 -25 16 -29 44 -5 35 9 -3 22 -6 30 -6z m-2596 -61 c0 -5 -5 -9
-10 -9 -10 0 -30 41 -30 58 1 10 40 -39 40 -49z m1540 41 c0 -5 -2 -10 -4 -10
-3 0 -8 5 -11 10 -3 6 -1 10 4 10 6 0 11 -4 11 -10z m550 -5 c-7 -9 -15 -13
-17 -11 -7 7 7 26 19 26 6 0 6 -6 -2 -15z m564 -1 c23 -9 20 -34 -4 -34 -13 0
-20 7 -20 20 0 22 1 23 24 14z m-655 -26 c11 3 12 -1 7 -19 -4 -13 -9 -35 -12
-49 -7 -32 -22 -50 -45 -50 -23 0 -33 16 -23 38 4 9 6 25 5 34 -4 31 18 59 37
49 9 -4 23 -6 31 -3z m281 -7 c0 -26 -16 -35 -24 -15 -10 25 -7 34 9 34 8 0
15 -9 15 -19z m-775 -13 c-8 -27 -22 -44 -30 -37 -7 7 18 59 28 59 5 0 5 -10
2 -22z m205 18 c0 -3 -4 -8 -10 -11 -5 -3 -10 -1 -10 4 0 6 5 11 10 11 6 0 10
-2 10 -4z m-1454 -22 c-3 -9 -6 -18 -6 -20 0 -2 -7 -4 -15 -4 -13 0 -14 4 -5
20 13 24 35 27 26 4z m1299 -13 c3 -5 1 -12 -5 -16 -5 -3 -10 1 -10 9 0 18 6
21 15 7z m692 -23 c-3 -8 -6 -5 -6 6 -1 11 2 17 5 13 3 -3 4 -12 1 -19z m94
-10 c-7 -20 -51 -40 -51 -24 0 17 27 46 42 46 14 0 16 -5 9 -22z m-2141 -38
c-6 -12 -14 -20 -17 -17 -2 3 1 14 8 26 7 11 15 18 17 16 2 -2 -2 -13 -8 -25z
m2395 9 c0 -7 -8 -15 -17 -17 -18 -3 -25 18 -11 32 10 10 28 1 28 -15z m-805
6 c0 -6 -11 -20 -37 -50 -7 -7 -13 -20 -13 -28 0 -8 -6 -20 -14 -26 -8 -7 -17
-23 -20 -36 -6 -24 -26 -36 -26 -16 0 5 -8 12 -17 14 -14 4 -13 5 3 6 24 1 37
23 28 46 -4 10 0 15 12 15 9 0 14 3 10 7 -4 4 8 22 26 40 31 30 48 40 48 28z
m234 -63 c-7 -10 -15 -32 -19 -50 -3 -18 -11 -32 -16 -32 -12 0 -5 58 9 72 7
7 12 21 12 32 0 16 3 17 12 8 9 -9 10 -17 2 -30z m-1264 -57 c0 -8 -4 -15 -10
-15 -5 0 -10 7 -10 15 0 8 5 15 10 15 6 0 10 -7 10 -15z m1350 5 c0 -5 6 -10
14 -10 17 0 29 -27 16 -35 -14 -8 -30 3 -30 21 0 8 -4 14 -10 14 -5 0 -10 5
-10 10 0 6 5 10 10 10 6 0 10 -4 10 -10z m426 -25 c3 -8 3 -19 -1 -25 -10 -16
-35 7 -28 26 7 18 22 18 29 -1z m149 -4 c3 -5 1 -12 -5 -16 -5 -3 -10 1 -10 9
0 18 6 21 15 7z m-2525 -25 c5 -13 14 -27 19 -31 13 -8 14 -25 2 -25 -9 0 -51
61 -51 74 0 16 22 3 30 -18z m1881 -1 c31 10 23 -24 -8 -36 -29 -11 -55 -9
-53 5 1 5 -4 12 -11 17 -8 4 -10 11 -6 15 4 4 13 2 19 -4 18 -18 28 -14 29 11
1 17 2 18 6 4 3 -12 10 -16 24 -12z m-186 -14 c8 -14 -9 -21 -35 -14 -22 6
-23 7 -4 14 26 10 32 10 39 0z m53 -8 c-4 -22 -22 -20 -26 1 -2 10 3 16 13 16
10 0 15 -7 13 -17z m-1672 -38 c9 -19 21 -35 26 -35 13 0 6 -50 -7 -51 -12 -1
-20 13 -38 74 -17 55 -5 63 19 12z m1539 -19 c6 3 17 -2 24 -10 7 -8 19 -12
26 -10 7 3 18 -4 24 -15 15 -28 14 -39 -6 -44 -17 -4 -17 -5 1 -12 11 -5 27
-3 39 5 15 9 22 10 25 1 2 -6 12 -11 23 -11 10 0 19 -4 19 -10 0 -9 -14 -14
-24 -7 -8 5 -46 -37 -46 -52 0 -12 -2 -13 -12 -2 -10 11 -10 14 0 18 6 3 12
11 12 19 0 11 -7 13 -27 8 -19 -5 -30 -2 -40 11 -9 14 -16 16 -24 8 -8 -8 -4
-17 12 -32 28 -26 20 -35 -20 -26 -34 7 -37 18 -20 76 10 32 9 42 -5 63 -18
29 -21 45 -5 29 6 -6 17 -9 24 -7z m975 -6 c0 -10 -32 -30 -49 -30 -20 0 -11
20 12 30 29 12 37 12 37 0z m-2637 -25 c7 -16 -8 -29 -23 -20 -15 9 -12 35 4
35 8 0 16 -7 19 -15z m1887 5 c0 -5 -4 -10 -10 -10 -5 0 -10 5 -10 10 0 6 5
10 10 10 6 0 10 -4 10 -10z m-90 -26 c0 -17 -22 -14 -28 4 -2 7 3 12 12 12 9
0 16 -7 16 -16z m120 12 c0 -3 -4 -8 -10 -11 -5 -3 -10 -1 -10 4 0 6 5 11 10
11 6 0 10 -2 10 -4z m650 -4 c0 -13 -12 -22 -22 -16 -10 6 -1 24 13 24 5 0 9
-4 9 -8z m-1040 -12 c0 -5 -4 -10 -10 -10 -5 0 -10 5 -10 10 0 6 5 10 10 10 6
0 10 -4 10 -10z m-1326 -62 c8 -13 21 -45 30 -72 16 -46 16 -49 -1 -62 -10 -7
-21 -14 -24 -14 -14 0 -19 33 -8 46 9 11 8 14 -4 14 -14 0 -34 23 -35 40 -1 3
-4 13 -7 23 -17 43 24 64 49 25z m1316 -31 c0 -24 -35 -53 -45 -37 -7 11 23
60 36 60 5 0 9 -10 9 -23z m32 1 c-6 -6 -15 -8 -19 -4 -4 4 -1 11 7 16 19 12
27 3 12 -12z m1086 0 c-6 -18 -28 -21 -28 -4 0 9 7 16 16 16 9 0 14 -5 12 -12z
m-2040 -9 c-3 -10 -131 -59 -155 -59 -35 0 -5 21 60 43 84 28 100 31 95 16z
m1332 1 c0 -5 -4 -10 -10 -10 -5 0 -10 5 -10 10 0 6 5 10 10 10 6 0 10 -4 10
-10z m-140 -34 c0 -3 -4 -8 -10 -11 -5 -3 -10 -1 -10 4 0 6 5 11 10 11 6 0 10
-2 10 -4z m-150 -32 c0 -16 -16 -19 -25 -4 -8 13 4 32 16 25 5 -4 9 -13 9 -21z
m236 15 c8 -14 -18 -31 -30 -19 -9 9 0 30 14 30 5 0 12 -5 16 -11z m-1456 -9
c0 -5 -6 -10 -12 -10 -7 0 -24 -3 -38 -6 -24 -6 -25 -6 -5 9 22 18 55 22 55 7z
m1520 -4 c0 -8 -4 -17 -9 -21 -12 -7 -24 12 -16 25 9 15 25 12 25 -4z m-1770
-16 c0 -5 -2 -10 -4 -10 -3 0 -8 5 -11 10 -3 6 -1 10 4 10 6 0 11 -4 11 -10z
m168 -13 c5 -24 -15 -21 -28 4 -10 18 -9 20 7 17 10 -2 19 -11 21 -21z m1926
-6 c3 -5 -1 -14 -9 -21 -13 -10 -15 -9 -15 9 0 21 14 28 24 12z m-404 -21 c0
-5 -9 -10 -19 -10 -11 0 -23 5 -26 10 -4 6 5 10 19 10 14 0 26 -4 26 -10z
m-340 -4 c0 -3 -4 -8 -10 -11 -5 -3 -10 -1 -10 4 0 6 5 11 10 11 6 0 10 -2 10
-4z m870 -6 c0 -5 -5 -10 -11 -10 -5 0 -7 5 -4 10 3 6 8 10 11 10 2 0 4 -4 4
-10z m-2140 -21 c0 -5 -4 -9 -10 -9 -5 0 -10 7 -10 16 0 8 5 12 10 9 6 -3 10
-10 10 -16z m1631 -10 l21 -21 -32 -62 c-18 -33 -40 -70 -49 -81 -10 -11 -21
-28 -25 -39 -6 -17 -8 -17 -30 5 -13 13 -32 30 -41 38 -15 12 -15 15 -1 30 14
13 19 14 38 2 19 -12 23 -11 34 5 8 11 18 24 24 31 14 17 13 24 -7 39 -11 8
-13 13 -6 14 7 0 10 7 7 14 -6 17 15 45 34 46 6 0 21 -9 33 -21z m-301 -4 c0
-8 -7 -15 -15 -15 -8 0 -15 7 -15 15 0 8 7 15 15 15 8 0 15 -7 15 -15z m-640
1 c0 -3 -4 -8 -10 -11 -5 -3 -10 -1 -10 4 0 6 5 11 10 11 6 0 10 -2 10 -4z
m728 -24 c2 -7 -3 -12 -12 -12 -9 0 -16 7 -16 16 0 17 22 14 28 -4z m-44 -27
c-6 -16 -24 -21 -24 -7 0 11 11 22 21 22 5 0 6 -7 3 -15z m-1252 -27 c-15 -15
-26 -4 -18 18 5 13 9 15 18 6 9 -9 9 -15 0 -24z m1824 5 c-10 -10 -19 5 -10
18 6 11 8 11 12 0 2 -7 1 -15 -2 -18z m-1641 -18 c0 -25 -4 -30 -24 -30 -32 0
-49 28 -31 50 7 9 23 15 34 13 16 -2 21 -10 21 -33z m1460 -4 c3 -5 1 -12 -5
-16 -5 -3 -10 1 -10 9 0 18 6 21 15 7z m-329 -58 c-10 -10 -19 5 -10 18 6 11
8 11 12 0 2 -7 1 -15 -2 -18z m-100 -68 c11 -29 -2 -37 -19 -11 -15 23 -16 26
-2 26 9 0 18 -7 21 -15z m184 -16 c0 -13 -29 -43 -36 -36 -7 6 18 47 28 47 5
0 8 -5 8 -11z m450 -4 c0 -8 -7 -15 -15 -15 -8 0 -15 7 -15 15 0 8 7 15 15 15
8 0 15 -7 15 -15z m-670 -10 c0 -8 -7 -15 -15 -15 -16 0 -20 12 -8 23 11 12
23 8 23 -8z m448 3 c-6 -18 -28 -21 -28 -4 0 9 7 16 16 16 9 0 14 -5 12 -12z
m-180 -56 c4 -26 -22 -31 -32 -6 -10 26 -7 36 12 32 9 -2 18 -13 20 -26z
m-1364 -35 c-3 -9 -10 -17 -15 -17 -11 0 -12 34 -2 44 11 11 24 -9 17 -27z
m1670 24 c3 -5 -1 -11 -9 -15 -9 -3 -15 0 -15 9 0 16 16 20 24 6z m-424 -61
c0 -5 -5 -10 -11 -10 -5 0 -7 5 -4 10 3 6 8 10 11 10 2 0 4 -4 4 -10z m647
-16 c-9 -9 -28 6 -21 18 4 6 10 6 17 -1 6 -6 8 -13 4 -17z m-491 -101 c-11
-11 -19 6 -11 24 8 17 8 17 12 0 3 -10 2 -21 -1 -24z m58 16 c13 -19 13 -24
-1 -46 -11 -16 -21 -22 -34 -18 -11 4 -19 2 -19 -4 0 -6 -7 -11 -15 -11 -22 0
-18 15 8 35 17 12 22 24 19 41 -6 31 21 33 42 3z"/>
<path d="M5312 4875 c-15 -32 -16 -85 -2 -85 6 0 10 6 10 13 1 6 7 1 14 -12
l14 -24 11 22 c7 12 9 25 6 30 -3 5 0 22 5 37 8 21 8 29 -2 36 -24 15 -45 8
-56 -17z"/>
<path d="M4222 3778 c-19 -19 -14 -30 8 -18 11 6 20 15 20 20 0 14 -14 12 -28
-2z"/>
<path d="M4177 3710 c4 -16 2 -19 -11 -14 -12 4 -16 0 -16 -15 0 -16 6 -21 26
-21 22 0 25 4 22 32 -2 17 -8 33 -15 35 -7 3 -9 -3 -6 -17z"/>
<path d="M4098 3408 c5 -5 16 -8 23 -6 8 3 3 7 -10 11 -17 4 -21 3 -13 -5z"/>
<path d="M3615 3380 c-29 -6 -29 -6 -6 -12 14 -4 31 -3 39 1 21 12 2 18 -33
11z"/>
<path d="M3690 3336 c0 -8 5 -18 10 -21 6 -3 10 3 10 14 0 12 -4 21 -10 21 -5
0 -10 -6 -10 -14z"/>
<path d="M3930 3245 c0 -9 9 -15 25 -15 16 0 25 6 25 15 0 9 -9 15 -25 15 -16
0 -25 -6 -25 -15z"/>
<path d="M3920 3198 c0 -4 7 -8 15 -8 8 0 15 4 15 8 0 5 -7 9 -15 9 -8 0 -15
-4 -15 -9z"/>
<path d="M3762 3171 c-10 -6 -10 -10 3 -21 13 -11 15 -9 15 9 0 24 0 24 -18
12z"/>
<path d="M3793 3134 c-3 -8 -2 -19 3 -24 5 -5 10 1 10 16 2 27 -4 31 -13 8z"/>
<path d="M4716 4001 c-3 -5 1 -11 9 -15 8 -3 15 -1 15 4 0 13 -18 22 -24 11z"/>
<path d="M3025 2940 c3 -5 15 -10 26 -10 11 0 17 5 14 10 -3 6 -15 10 -26 10
-11 0 -17 -4 -14 -10z"/>
<path d="M4608 6160 c4 -30 16 -39 27 -20 6 9 -15 50 -26 50 -3 0 -4 -13 -1
-30z"/>
<path d="M2660 6160 c-13 -9 -13 -10 0 -10 8 0 22 5 30 10 13 9 13 10 0 10 -8
0 -22 -5 -30 -10z"/>
<path d="M4431 6141 c-16 -10 -8 -27 19 -41 13 -7 19 -6 23 4 8 19 -25 47 -42
37z"/>
<path d="M6655 6131 c-141 -69 -175 -196 -81 -299 52 -58 114 -66 194 -26 68
34 119 94 128 150 5 35 1 51 -21 92 -15 27 -41 60 -58 72 -42 32 -111 36 -162
11z m141 -106 c16 -24 15 -27 -7 -59 -27 -39 -94 -86 -123 -86 -24 0 -56 28
-56 49 0 25 27 59 73 92 50 36 91 38 113 4z"/>
<path d="M4773 6103 c1 -18 5 -33 9 -33 10 0 9 19 -2 45 -7 16 -9 14 -7 -12z"/>
<path d="M4109 6097 c13 -13 51 -17 51 -5 0 9 -2 9 -38 13 -16 2 -20 -1 -13
-8z"/>
<path d="M4032 6084 c-12 -8 -22 -20 -22 -26 0 -6 -7 -20 -17 -30 -13 -14 -13
-18 -2 -18 8 0 20 14 27 30 8 17 20 30 28 30 8 0 14 7 14 15 0 19 0 19 -28 -1z"/>
<path d="M4373 6093 c-7 -3 -13 -13 -13 -23 0 -11 -8 -24 -17 -29 -10 -6 -14
-11 -9 -11 12 0 76 43 76 51 0 10 -23 17 -37 12z"/>
<path d="M4510 6088 c0 -4 6 -8 14 -8 8 0 17 4 20 8 2 4 -4 8 -15 8 -10 0 -19
-4 -19 -8z"/>
<path d="M4697 6019 c-9 -17 -13 -27 -7 -24 5 3 11 1 15 -5 8 -13 22 -5 35 20
8 15 6 21 -8 29 -14 7 -21 4 -35 -20z"/>
<path d="M799 6001 l-27 -38 141 -103 c77 -56 146 -104 151 -106 6 -2 40 38
75 88 l65 91 -29 25 c-32 27 -24 32 -85 -47 l-25 -32 -110 80 c-60 44 -114 80
-120 80 -5 0 -22 -17 -36 -38z"/>
<path d="M4301 6024 c0 -11 3 -14 6 -6 3 7 2 16 -1 19 -3 4 -6 -2 -5 -13z"/>
<path d="M4150 6000 c0 -5 5 -10 10 -10 6 0 10 5 10 10 0 6 -4 10 -10 10 -5 0
-10 -4 -10 -10z"/>
<path d="M4116 5987 c3 -10 9 -15 12 -12 3 3 0 11 -7 18 -10 9 -11 8 -5 -6z"/>
<path d="M4840 5964 c0 -8 5 -12 10 -9 6 4 8 11 5 16 -9 14 -15 11 -15 -7z"/>
<path d="M3847 5953 c-20 -5 -13 -23 9 -23 8 0 12 5 9 10 -4 7 2 9 19 4 16 -4
26 -2 26 5 0 11 -29 13 -63 4z"/>
<path d="M4670 5950 c0 -5 5 -10 10 -10 6 0 10 5 10 10 0 6 -4 10 -10 10 -5 0
-10 -4 -10 -10z"/>
<path d="M3566 5882 c-3 -6 -1 -14 5 -17 14 -9 20 -2 10 14 -6 8 -11 9 -15 3z"/>
<path d="M3484 5871 c3 -5 15 -7 26 -4 28 7 25 13 -6 13 -14 0 -23 -4 -20 -9z"/>
<path d="M620 5718 c-25 -44 -45 -85 -45 -89 0 -9 291 -179 306 -179 4 0 26
30 47 68 67 116 66 107 26 125 l-34 17 -20 -33 c-11 -17 -21 -36 -23 -41 -3
-10 -67 12 -67 23 0 3 9 21 20 39 11 18 20 36 20 40 0 7 -61 45 -65 40 -1 -2
-12 -20 -24 -40 -25 -42 -28 -43 -54 -23 -18 13 -18 15 7 57 l26 44 -29 17
c-16 9 -33 17 -38 17 -4 0 -28 -37 -53 -82z"/>
<path d="M6924 5678 c-161 -165 -150 -146 -119 -207 15 -30 32 -51 42 -51 17
0 356 70 361 74 2 2 -33 71 -53 103 -2 4 -221 -64 -236 -72 -30 -18 23 33 100
95 44 36 80 69 81 73 0 12 -51 97 -59 97 -3 0 -56 -51 -117 -112z"/>
<path d="M4255 5670 c3 -5 8 -10 11 -10 2 0 4 5 4 10 0 6 -5 10 -11 10 -5 0
-7 -4 -4 -10z"/>
<path d="M4976 5475 c4 -8 8 -15 10 -15 2 0 4 7 4 15 0 8 -4 15 -10 15 -5 0
-7 -7 -4 -15z"/>
<path d="M4210 5453 c-14 -3 -32 -11 -40 -18 -8 -7 -31 -16 -50 -20 -19 -4
-43 -18 -53 -31 -10 -13 -24 -21 -30 -17 -6 4 -8 1 -5 -9 10 -26 -26 -122 -50
-133 -12 -5 -20 -16 -17 -23 2 -7 -12 -42 -31 -78 -28 -49 -38 -81 -42 -129
-4 -55 -2 -65 11 -65 9 0 19 5 22 10 10 16 28 11 21 -6 -8 -21 11 -44 31 -37
19 7 63 99 63 131 0 12 7 39 15 60 14 33 14 38 0 48 -22 16 -19 27 5 14 16 -9
20 -8 20 5 0 8 -4 15 -10 15 -5 0 -10 5 -10 10 0 6 6 10 13 10 7 0 23 31 36
70 12 39 25 71 29 71 41 8 101 2 131 -13 38 -20 56 -12 63 27 4 25 -28 32 -51
11 -17 -15 -31 -13 -31 6 0 5 5 6 10 3 6 -3 10 -2 10 3 0 5 9 13 20 18 19 9
19 9 -1 42 -21 31 -29 34 -79 25z m-190 -279 c0 -17 -22 -14 -28 4 -2 7 3 12
12 12 9 0 16 -7 16 -16z"/>
<path d="M456 5400 c-9 -22 -16 -44 -16 -48 0 -4 52 -30 115 -57 120 -50 144
-70 125 -105 -18 -34 -41 -31 -176 26 -59 24 -108 43 -109 42 -7 -10 -35 -91
-33 -94 13 -12 230 -97 258 -101 78 -9 150 71 150 168 0 72 -27 97 -169 158
-66 28 -122 51 -124 51 -3 0 -12 -18 -21 -40z"/>
<path d="M1606 5413 c-6 -14 -5 -15 5 -6 7 7 10 15 7 18 -3 3 -9 -2 -12 -12z"/>
<path d="M1697 5366 c-42 -15 -106 -81 -107 -109 0 -33 30 -31 66 4 28 27 37
31 44 19 7 -12 13 -12 37 0 15 8 36 21 46 29 17 14 20 14 32 -2 7 -10 16 -14
19 -9 3 6 -6 17 -19 26 -14 9 -23 22 -19 28 8 13 -14 28 -41 27 -11 0 -37 -6
-58 -13z"/>
<path d="M5068 5338 c7 -7 12 -15 12 -19 0 -11 -54 -18 -71 -8 -14 7 -18 2
-21 -27 -2 -19 1 -39 7 -44 14 -12 25 -3 25 20 0 12 11 19 39 24 41 6 59 29
40 52 -6 8 -19 14 -27 14 -12 0 -13 -3 -4 -12z"/>
<path d="M7108 5262 l-166 -67 32 -80 c18 -44 35 -88 39 -97 5 -15 10 -16 34
-6 44 18 45 22 27 67 -18 45 -14 54 24 66 19 5 25 1 38 -32 21 -49 17 -47 58
-33 l35 11 -17 45 c-15 39 -15 46 -2 54 25 17 42 7 58 -35 8 -22 16 -41 18
-43 1 -2 18 4 37 12 l36 15 -35 88 c-20 48 -39 91 -42 95 -4 3 -82 -24 -174
-60z"/>
<path d="M3860 5234 c0 -5 -4 -26 -9 -46 -5 -21 -5 -38 -1 -38 8 0 21 82 14
89 -2 2 -4 0 -4 -5z"/>
<path d="M1918 5153 c-23 -36 -40 -84 -53 -145 -9 -48 3 -31 19 25 9 30 24 65
34 78 11 13 17 30 14 38 -2 7 2 17 9 22 7 4 11 11 7 14 -4 4 -17 -10 -30 -32z"/>
<path d="M3841 5114 c0 -11 3 -14 6 -6 3 7 2 16 -1 19 -3 4 -6 -2 -5 -13z"/>
<path d="M4125 4968 c-10 -40 -1 -54 36 -62 37 -7 60 13 31 28 -9 5 -27 21
-39 35 l-21 26 -7 -27z"/>
<path d="M289 4943 c-17 -27 -25 -57 -27 -106 l-4 -67 43 -44 c49 -48 95 -66
174 -66 93 0 154 67 155 171 0 41 -3 48 -24 53 -13 3 -31 9 -40 12 -13 5 -15
1 -10 -23 8 -42 -19 -101 -50 -109 -64 -16 -159 30 -164 80 -2 18 4 40 17 56
19 26 19 29 3 42 -50 41 -49 41 -73 1z"/>
<path d="M1940 4951 c0 -11 -7 -26 -15 -34 -8 -8 -11 -17 -8 -21 12 -12 23 -6
23 14 0 11 5 20 10 20 6 0 10 9 10 20 0 11 -4 20 -10 20 -5 0 -10 -9 -10 -19z"/>
<path d="M1844 4916 c-3 -13 -4 -35 -2 -47 3 -19 6 -15 15 19 6 23 7 45 2 47
-5 3 -11 -5 -15 -19z"/>
<path d="M3544 4899 c-9 -15 -2 -18 20 -9 17 6 18 7 3 13 -9 3 -19 2 -23 -4z"/>
<path d="M3160 4848 c-67 -9 -90 -21 -90 -45 0 -17 17 -15 125 9 39 9 60 19
60 28 0 19 -15 20 -95 8z"/>
<path d="M1827 4794 c-10 -62 -9 -205 1 -254 11 -54 16 -27 12 69 -1 44 1 61
9 57 6 -4 19 -2 29 3 18 10 18 14 6 62 -8 29 -18 55 -22 58 -5 3 -13 15 -19
25 -9 16 -11 14 -16 -20z m20 -46 c-3 -8 -6 -5 -6 6 -1 11 2 17 5 13 3 -3 4
-12 1 -19z"/>
<path d="M3477 4783 c-9 -9 -9 -33 1 -33 4 0 13 9 20 20 10 16 10 20 -1 20 -8
0 -17 -3 -20 -7z"/>
<path d="M3426 4751 c-4 -5 -2 -12 3 -15 5 -4 12 -2 15 3 4 5 2 12 -3 15 -5 4
-12 2 -15 -3z"/>
<path d="M7286 4667 c-82 -18 -151 -37 -153 -44 -2 -6 1 -29 6 -51 l11 -39 60
14 c34 7 65 11 69 9 5 -3 11 -24 15 -47 6 -40 8 -41 38 -35 17 3 35 6 40 6 5
0 7 8 4 18 -20 71 -18 79 15 86 38 7 44 0 53 -56 7 -40 7 -40 44 -33 20 4 38
8 39 9 1 1 -2 19 -7 41 -4 22 -13 66 -20 98 -14 69 -4 68 -214 24z"/>
<path d="M184 4498 c-11 -25 -18 -65 -19 -100 0 -55 3 -62 33 -89 25 -22 42
-29 75 -29 46 0 67 16 116 88 55 79 89 -3 36 -85 -9 -14 -15 -26 -13 -27 2 -2
21 -6 44 -9 37 -6 42 -4 53 19 58 128 18 234 -88 234 -50 0 -70 -14 -120 -87
-41 -61 -75 -32 -48 39 19 46 17 52 -22 73 -28 14 -29 14 -47 -27z"/>
<path d="M1503 4498 c-7 -24 -8 -40 -1 -44 15 -10 20 1 16 42 l-3 39 -12 -37z"/>
<path d="M1397 4316 c-4 -10 2 -13 19 -12 13 0 24 7 24 14 0 17 -37 15 -43 -2z"/>
<path d="M7328 4296 c-97 -26 -133 -77 -126 -177 7 -101 63 -149 172 -149 80
0 132 17 165 56 38 43 47 98 27 169 -13 44 -24 60 -54 79 -46 30 -122 39 -184
22z m154 -126 c22 -28 22 -32 0 -60 -32 -39 -170 -45 -193 -8 -12 19 -11 42 4
62 30 40 158 45 189 6z"/>
<path d="M1924 4185 c3 -22 6 -48 6 -57 0 -10 5 -18 11 -18 13 0 4 74 -12 99
-8 12 -9 6 -5 -24z"/>
<path d="M5193 4150 c0 -36 2 -50 4 -32 2 17 2 47 0 65 -2 17 -4 3 -4 -33z"/>
<path d="M5243 4094 c-28 -32 -29 -54 -3 -54 21 0 24 4 34 53 8 34 -2 34 -31
1z"/>
<path d="M130 4007 l0 -104 177 -6 c98 -3 179 -5 180 -3 2 2 6 49 10 105 l6
101 -41 0 -42 0 0 -50 0 -50 -35 0 -35 0 0 50 0 50 -39 0 -40 0 -3 -47 c-3
-44 -5 -48 -28 -48 -23 0 -25 4 -28 53 l-3 52 -40 0 -39 0 0 -103z"/>
<path d="M3925 4087 c-4 -10 -5 -21 -1 -24 10 -10 18 4 13 24 -4 17 -4 17 -12
0z"/>
<path d="M1697 4029 c7 -7 15 -10 18 -7 3 3 -2 9 -12 12 -14 6 -15 5 -6 -5z"/>
<path d="M5201 4022 c-19 -3 -21 -6 -10 -13 11 -7 9 -9 -8 -9 -27 0 -29 -9 -9
-36 15 -19 15 -18 39 6 30 30 23 57 -12 52z"/>
<path d="M3385 4000 c-3 -5 1 -10 10 -10 9 0 13 5 10 10 -3 6 -8 10 -10 10 -2
0 -7 -4 -10 -10z"/>
<path d="M6431 3885 c-26 -25 -53 -45 -58 -45 -6 0 -17 -8 -24 -17 -16 -20
-19 -21 89 28 60 27 72 36 72 55 0 36 -25 29 -79 -21z"/>
<path d="M1432 3856 c7 -8 15 -12 17 -11 5 6 -10 25 -20 25 -5 0 -4 -6 3 -14z"/>
<path d="M2710 3862 c0 -12 19 -26 26 -19 2 2 -2 10 -11 17 -9 8 -15 8 -15 2z"/>
<path d="M2367 3803 c-4 -3 -7 -11 -7 -17 0 -6 5 -5 12 2 6 6 9 14 7 17 -3 3
-9 2 -12 -2z"/>
<path d="M7216 3785 c-3 -9 -6 -31 -6 -50 0 -30 3 -33 38 -39 20 -3 49 -6 65
-6 44 0 32 -15 -35 -44 -35 -15 -66 -33 -70 -39 -8 -12 -11 -107 -4 -107 2 0
36 18 76 40 40 22 75 40 77 40 3 0 18 -11 35 -25 40 -34 115 -35 145 -2 28 29
43 88 43 163 l0 62 -62 6 c-35 3 -115 8 -179 12 -103 6 -117 4 -123 -11z m261
-105 c20 0 24 -4 21 -22 -6 -44 -78 -31 -78 14 0 14 5 18 16 14 9 -3 27 -6 41
-6z"/>
<path d="M1225 3781 c-3 -5 -1 -12 5 -16 5 -3 10 1 10 9 0 18 -6 21 -15 7z"/>
<path d="M860 3770 c-8 -5 -12 -11 -10 -14 3 -2 14 2 24 10 22 15 10 19 -14 4z"/>
<path d="M2711 3768 c-1 -12 6 -18 20 -18 11 0 17 5 14 10 -4 6 -10 8 -15 5
-4 -3 -11 1 -13 7 -3 8 -6 6 -6 -4z"/>
<path d="M6921 3766 c-7 -8 -25 -18 -41 -21 -16 -4 -39 -15 -52 -25 -13 -10
-43 -24 -66 -31 -38 -11 -43 -16 -38 -35 7 -28 -7 -38 -58 -40 -47 -3 -63 -16
-41 -34 14 -12 23 -10 58 8 23 12 74 34 112 50 39 16 100 42 137 57 69 28 87
47 67 71 -15 18 -63 18 -78 0z"/>
<path d="M2340 3745 c-10 -12 -10 -29 -1 -78 6 -34 12 -70 12 -79 0 -10 4 -20
10 -23 5 -4 9 -21 9 -40 0 -30 27 -95 40 -95 3 0 11 4 18 8 16 11 -12 107 -34
116 -12 4 -13 10 -6 19 11 13 5 64 -9 73 -15 9 -10 34 12 66 24 33 24 33 -12
41 -18 5 -31 2 -39 -8z"/>
<path d="M2252 3692 c-9 -3 -8 -11 5 -33 16 -27 16 -29 -1 -42 -24 -17 -13
-37 20 -37 16 0 23 4 18 12 -4 6 0 16 9 23 24 18 12 72 -17 77 -12 3 -27 3
-34 0z"/>
<path d="M810 3650 c0 -5 7 -10 16 -10 8 0 12 5 9 10 -3 6 -10 10 -16 10 -5 0
-9 -4 -9 -10z"/>
<path d="M5830 3625 c0 -5 5 -17 10 -25 5 -8 10 -10 10 -5 0 6 -5 17 -10 25
-5 8 -10 11 -10 5z"/>
<path d="M5196 3593 c-6 -14 -5 -15 5 -6 7 7 10 15 7 18 -3 3 -9 -2 -12 -12z"/>
<path d="M2620 3589 c-14 -4 -19 -7 -11 -8 11 -1 11 -4 1 -16 -20 -24 -2 -31
21 -8 27 26 21 41 -11 32z"/>
<path d="M6535 3570 c-8 -25 5 -48 36 -64 13 -7 23 -20 23 -30 -1 -9 3 -15 10
-13 23 8 17 39 -13 69 -17 18 -31 38 -31 45 0 20 -18 15 -25 -7z"/>
<path d="M2323 3563 c-7 -2 -13 -13 -13 -24 0 -23 -16 -25 -28 -3 -7 13 -14
14 -27 6 -17 -9 -15 -13 18 -47 21 -21 37 -46 37 -56 0 -10 9 -21 21 -24 25
-8 35 0 22 17 -18 21 -24 71 -14 106 10 32 7 35 -16 25z"/>
<path d="M2174 3536 c-3 -8 0 -25 7 -37 l12 -23 9 24 c10 26 4 50 -12 50 -6 0
-13 -6 -16 -14z"/>
<path d="M4682 3534 c-38 -26 -21 -76 31 -89 22 -6 26 -4 21 8 -4 11 2 16 18
19 48 7 25 78 -25 78 -13 0 -33 -7 -45 -16z"/>
<path d="M4820 3539 c0 -5 5 -7 10 -4 6 3 10 8 10 11 0 2 -4 4 -10 4 -5 0 -10
-5 -10 -11z"/>
<path d="M1747 3533 c-13 -12 -7 -23 13 -23 13 0 18 5 14 15 -7 16 -17 19 -27
8z"/>
<path d="M4922 3528 c-14 -14 -16 -28 -3 -28 9 0 24 30 18 36 -2 2 -9 -2 -15
-8z"/>
<path d="M1941 3514 c0 -11 3 -14 6 -6 3 7 2 16 -1 19 -3 4 -6 -2 -5 -13z"/>
<path d="M5026 3491 c-4 -5 -1 -13 5 -16 5 -4 8 -14 5 -22 -3 -8 -1 -11 4 -8
13 8 13 42 1 50 -5 3 -12 1 -15 -4z"/>
<path d="M1875 3470 c3 -5 8 -10 11 -10 2 0 4 5 4 10 0 6 -5 10 -11 10 -5 0
-7 -4 -4 -10z"/>
<path d="M1950 3454 c0 -8 5 -12 10 -9 6 3 10 10 10 16 0 5 -4 9 -10 9 -5 0
-10 -7 -10 -16z"/>
<path d="M2195 3438 c10 -33 59 -102 63 -90 2 6 -8 28 -22 49 -14 21 -26 43
-26 50 0 7 -5 13 -11 13 -6 0 -8 -9 -4 -22z"/>
<path d="M6540 3450 c0 -5 5 -10 11 -10 5 0 7 5 4 10 -3 6 -8 10 -11 10 -2 0
-4 -4 -4 -10z"/>
<path d="M295 3425 c-33 -9 -60 -24 -82 -49 -29 -32 -33 -42 -33 -94 0 -51 15
-161 23 -168 3 -3 351 56 355 61 9 9 -30 173 -46 195 -24 32 -98 70 -137 69
-16 0 -52 -6 -80 -14z m147 -112 c29 -26 23 -51 -14 -57 -18 -3 -60 -10 -92
-16 -80 -14 -78 -14 -74 23 2 25 10 36 38 49 45 23 117 23 142 1z"/>
<path d="M6740 3371 c-48 -12 -109 -46 -113 -63 -7 -27 20 -22 45 7 22 25 78
36 78 15 0 -5 7 -10 15 -10 10 0 15 10 15 30 0 17 -3 29 -7 29 -5 -1 -19 -4
-33 -8z"/>
<path d="M2135 3361 c-3 -5 -1 -12 5 -16 5 -3 10 1 10 9 0 18 -6 21 -15 7z"/>
<path d="M6693 3315 c-17 -13 -16 -14 9 -15 30 0 46 15 24 23 -8 3 -22 -1 -33
-8z"/>
<path d="M6597 3313 c-4 -3 -7 -13 -7 -22 1 -13 3 -13 11 2 11 19 8 33 -4 20z"/>
<path d="M6515 3286 c-20 -14 -19 -15 9 -25 31 -12 56 -1 56 25 0 22 -17 16
-25 -8 l-7 -23 -6 23 c-6 21 -9 22 -27 8z"/>
<path d="M652 3257 c-13 -34 -6 -52 9 -24 6 9 16 17 23 17 19 0 15 28 -4 33
-11 3 -20 -5 -28 -26z"/>
<path d="M6425 3251 c-181 -89 -277 -124 -320 -119 -19 2 -32 1 -29 -3 2 -4
-6 -14 -19 -22 -12 -8 -33 -24 -46 -36 -13 -11 -40 -23 -60 -27 -20 -4 -44
-14 -54 -22 -10 -9 -41 -17 -75 -19 -76 -3 -187 -44 -240 -87 l-43 -34 61 4
c38 3 60 1 60 -6 0 -5 8 -10 17 -10 15 0 14 2 -3 14 -18 14 -16 16 29 35 27
12 56 21 64 21 9 0 45 16 81 36 42 24 82 38 115 41 43 4 53 1 77 -22 23 -22
28 -24 34 -10 3 9 10 13 16 10 5 -3 10 1 10 9 0 19 26 21 33 4 2 -7 8 -10 12
-6 5 5 2 20 -5 35 -11 23 -14 25 -17 11 -3 -10 -10 -18 -16 -18 -7 0 -22 -3
-34 -6 -17 -5 -23 -2 -23 10 0 9 4 16 8 16 4 0 32 16 62 35 30 19 64 35 77 35
12 0 24 4 27 9 3 4 40 21 83 36 43 15 86 34 96 44 11 9 44 21 75 27 34 7 46
12 30 13 -20 1 -26 5 -22 16 8 19 9 20 -61 -14z"/>
<path d="M4450 3219 c0 -5 5 -7 10 -4 6 3 10 8 10 11 0 2 -4 4 -10 4 -5 0 -10
-5 -10 -11z"/>
<path d="M6460 3155 c-10 -12 -10 -15 4 -15 9 0 16 7 16 15 0 8 -2 15 -4 15
-2 0 -9 -7 -16 -15z"/>
<path d="M7152 3147 c-29 -34 -47 -106 -43 -169 2 -30 51 -77 87 -84 47 -9 87
10 129 62 58 70 96 50 55 -28 l-22 -42 27 -23 c14 -13 30 -23 35 -23 4 0 17
19 28 43 61 126 24 217 -87 217 -34 0 -45 -6 -85 -51 -71 -79 -116 -47 -62 46
l26 44 -22 6 c-13 4 -30 9 -39 11 -9 2 -21 -2 -27 -9z"/>
<path d="M6617 3109 c-32 -17 -61 -28 -64 -25 -3 3 -17 -4 -31 -14 -14 -11
-40 -20 -59 -20 -19 0 -43 -5 -54 -11 -15 -8 -24 -7 -36 3 -13 10 -17 10 -20
1 -3 -7 -17 -13 -32 -13 -15 0 -60 -11 -99 -25 -39 -14 -80 -25 -91 -25 -10 0
-24 -7 -31 -15 -7 -8 -16 -12 -21 -9 -5 3 -9 1 -9 -4 0 -5 -10 -14 -22 -20
-49 -23 7 -10 60 14 31 15 75 29 97 32 22 3 50 12 62 19 12 8 41 14 65 12 24
-1 56 3 71 10 16 6 38 11 50 11 12 0 42 8 67 17 43 15 94 25 205 39 49 7 65
16 65 42 0 8 -18 12 -57 12 -45 0 -71 -7 -116 -31z"/>
<path d="M670 3080 c0 -5 5 -10 11 -10 5 0 7 5 4 10 -3 6 -8 10 -11 10 -2 0
-4 -4 -4 -10z"/>
<path d="M2050 3074 c0 -17 28 -49 36 -41 4 4 -2 17 -14 30 -12 12 -22 17 -22
11z"/>
<path d="M880 3039 c0 -3 10 -9 23 -13 30 -8 37 -7 37 3 0 5 -13 11 -30 13
-16 3 -30 1 -30 -3z"/>
<path d="M1880 2991 c0 -10 9 -21 21 -24 11 -3 23 -15 26 -27 4 -15 8 -18 13
-10 6 10 13 9 31 -4 13 -9 30 -16 39 -16 8 0 2 7 -15 16 -16 8 -32 18 -35 22
-3 4 -12 7 -20 7 -8 0 -19 10 -25 22 -13 29 -35 38 -35 14z"/>
<path d="M1457 2975 c-4 -8 -2 -17 3 -20 6 -4 10 -4 10 -1 0 2 3 11 6 20 3 9
2 16 -4 16 -5 0 -12 -7 -15 -15z"/>
<path d="M2361 2961 c-34 -9 -36 -23 -8 -53 16 -18 28 -23 42 -17 19 6 19 7 2
14 -14 6 -17 14 -12 36 4 16 5 29 3 28 -2 -1 -14 -4 -27 -8z"/>
<path d="M395 2937 c-87 -42 -120 -96 -105 -175 9 -51 37 -99 73 -126 61 -45
225 -9 274 60 45 63 36 154 -22 221 -30 35 -35 37 -101 41 -57 2 -78 -1 -119
-21z m163 -93 c27 -18 29 -55 4 -77 -48 -43 -147 -61 -176 -31 -37 37 -11 78
64 105 68 23 80 23 108 3z"/>
<path d="M5850 2934 c-31 -11 -32 -13 -10 -13 14 0 32 3 40 9 24 15 7 18 -30
4z"/>
<path d="M2235 2930 c-3 -5 -16 -9 -28 -9 -23 1 -72 -6 -119 -17 -16 -3 -28
-11 -28 -17 0 -25 -32 -45 -64 -40 -27 4 -35 1 -49 -21 -17 -26 -17 -26 9 -36
14 -6 30 -8 35 -5 4 3 25 7 45 9 19 1 39 7 42 13 8 12 78 29 101 24 8 -1 17 1
20 6 13 17 50 33 56 23 8 -13 35 -13 55 0 11 7 12 12 3 21 -6 6 -9 17 -7 24 6
14 -22 28 -37 19 -5 -3 -9 0 -9 5 0 14 -17 14 -25 1z"/>
<path d="M5939 2920 c-16 -17 -14 -18 29 -14 50 5 70 14 31 14 -14 0 -29 4
-34 9 -6 4 -17 1 -26 -9z"/>
<path d="M1882 2888 c5 -15 28 -23 28 -10 0 5 -7 13 -16 16 -10 4 -14 1 -12
-6z"/>
<path d="M5855 2889 c-16 -4 -66 -18 -109 -29 -79 -21 -162 -57 -153 -66 2 -3
20 5 40 16 19 11 59 24 88 27 30 4 68 15 84 25 17 10 41 18 55 18 14 0 32 5
40 10 13 9 13 10 0 9 -8 -1 -28 -5 -45 -10z"/>
<path d="M5455 2849 c-11 -4 -14 -8 -7 -8 6 -1 12 -11 12 -23 0 -16 3 -19 11
-11 6 6 9 20 7 30 -2 16 -7 18 -23 12z"/>
<path d="M5538 2828 c-23 -23 -12 -22 32 2 31 17 32 19 10 17 -14 0 -33 -9
-42 -19z"/>
<path d="M1830 2810 c0 -5 5 -10 11 -10 5 0 7 5 4 10 -3 6 -8 10 -11 10 -2 0
-4 -4 -4 -10z"/>
<path d="M5370 2791 c0 -5 9 -7 20 -4 11 3 20 7 20 9 0 2 -9 4 -20 4 -11 0
-20 -4 -20 -9z"/>
<path d="M5409 2763 c-13 -15 -12 -15 9 -4 23 12 28 21 13 21 -5 0 -15 -7 -22
-17z"/>
<path d="M7024 2745 c-22 -53 -18 -62 35 -81 l50 -18 -6 -62 c-5 -60 -4 -64
24 -92 53 -54 132 -61 173 -17 26 28 83 166 73 176 -7 7 -320 129 -330 129 -2
0 -11 -16 -19 -35z m222 -151 c27 -7 26 -6 18 -28 -8 -21 -48 -21 -68 0 -24
24 -16 50 12 39 8 -3 25 -8 38 -11z"/>
<path d="M5517 2749 c-22 -11 -37 -23 -34 -25 5 -6 87 33 87 41 0 9 -14 4 -53
-16z"/>
<path d="M2094 2740 c3 -14 6 -28 6 -32 0 -5 4 -8 9 -8 12 0 9 20 -8 45 -12
19 -12 19 -7 -5z"/>
<path d="M900 2721 c0 -5 5 -13 10 -16 6 -3 10 -2 10 4 0 5 -4 13 -10 16 -5 3
-10 2 -10 -4z"/>
<path d="M2398 2688 c-22 -34 -67 -56 -77 -39 -6 9 -11 10 -15 3 -4 -6 -13 -9
-20 -6 -7 3 -16 -3 -20 -13 -3 -10 -8 -23 -11 -29 -3 -6 3 -14 15 -17 12 -3
20 0 20 8 0 11 28 24 53 25 4 0 7 -11 7 -25 0 -14 5 -25 11 -25 8 0 10 12 6
34 -4 25 -1 39 12 50 20 18 41 21 41 6 0 -5 4 -10 8 -10 13 0 11 38 -2 50 -10
8 -17 5 -28 -12z"/>
<path d="M5445 2700 c-3 -6 1 -7 9 -4 18 7 21 14 7 14 -6 0 -13 -4 -16 -10z"/>
<path d="M2130 2690 c-12 -8 -11 -10 8 -10 12 0 22 5 22 10 0 13 -11 13 -30 0z"/>
<path d="M2070 2654 c0 -8 5 -12 10 -9 6 4 8 11 5 16 -9 14 -15 11 -15 -7z"/>
<path d="M5627 2633 c-10 -3 -16 -10 -14 -17 3 -7 1 -19 -3 -26 -7 -11 -11
-11 -24 0 -26 21 -27 7 -1 -16 l24 -21 12 29 c9 23 18 29 38 28 44 -3 47 0 17
15 -15 8 -29 14 -30 14 0 -1 -9 -3 -19 -6z"/>
<path d="M1130 2623 c-47 -15 -59 -27 -54 -49 5 -19 1 -26 -20 -34 -31 -11
-35 -24 -5 -15 27 9 59 41 59 59 0 7 10 21 23 29 23 17 22 19 -3 10z"/>
<path d="M3355 2606 c-19 -14 -18 -15 12 -13 18 1 32 6 30 11 -5 16 -22 17
-42 2z"/>
<path d="M993 2565 c-48 -15 -116 -59 -106 -68 3 -4 -2 -17 -13 -29 -19 -23
-19 -23 1 -6 12 10 30 16 40 14 11 -2 14 -1 7 1 -23 8 -6 28 24 28 21 0 32 7
42 28 8 16 21 27 33 27 10 0 19 5 19 10 0 6 -1 10 -2 9 -2 -1 -22 -7 -45 -14z"/>
<path d="M3590 2569 c0 -5 5 -7 10 -4 6 3 10 8 10 11 0 2 -4 4 -10 4 -5 0 -10
-5 -10 -11z"/>
<path d="M2210 2560 c0 -5 5 -10 11 -10 6 0 9 -6 7 -12 -3 -7 -11 -13 -18 -13
-22 0 -22 -19 0 -33 18 -11 20 -10 20 8 0 23 10 26 28 8 9 -9 12 -9 12 0 0 7
-6 15 -14 18 -8 3 -16 14 -19 25 -5 19 -27 27 -27 9z"/>
<path d="M648 2489 c-43 -21 -78 -43 -78 -47 1 -4 15 -34 33 -68 l32 -61 33
14 c26 11 32 18 27 31 -20 45 -18 61 6 60 35 -2 49 -17 49 -52 0 -21 -8 -40
-23 -54 -26 -25 -87 -52 -117 -52 -29 0 -57 32 -70 79 -10 39 -12 41 -51 41
l-41 0 7 -37 c10 -54 54 -131 89 -156 49 -35 139 -31 202 8 66 41 94 85 94
147 0 42 -3 51 -20 55 -16 4 -18 8 -9 19 9 11 7 20 -6 41 -26 40 -57 73 -69
73 -6 -1 -46 -19 -88 -41z"/>
<path d="M5730 2520 c0 -5 6 -10 14 -10 8 0 18 5 21 10 3 6 -3 10 -14 10 -12
0 -21 -4 -21 -10z"/>
<path d="M1047 2486 c6 -30 -18 -48 -66 -49 -45 -2 -45 -13 0 -19 23 -4 37 1
54 18 27 27 37 61 20 67 -8 4 -10 -2 -8 -17z"/>
<path d="M3348 2480 c-48 -26 -59 -43 -21 -34 35 8 73 31 73 44 0 14 -10 12
-52 -10z"/>
<path d="M5500 2480 l-35 -7 43 -2 c23 0 45 -1 49 -2 4 0 9 4 11 10 4 12 -15
12 -68 1z"/>
<path d="M2353 2457 c4 -10 7 -23 7 -28 0 -5 5 -9 10 -9 15 0 12 20 -7 38 -16
16 -16 16 -10 -1z"/>
<path d="M1575 2404 c-16 -22 -42 -51 -58 -66 -16 -16 -26 -28 -21 -28 14 0
69 52 77 73 3 9 16 17 27 17 22 0 25 7 11 29 -6 10 -15 4 -36 -25z"/>
<path d="M3871 2387 c-8 -8 -6 -16 6 -29 18 -20 48 -24 58 -8 15 25 -43 58
-64 37z"/>
<path d="M1971 2366 c-16 -19 -11 -29 8 -17 7 5 12 14 9 21 -3 9 -8 7 -17 -4z"/>
<path d="M6903 2359 c-42 -12 -98 -79 -112 -133 -21 -86 32 -163 143 -205 68
-25 74 -25 125 -5 73 29 125 137 101 209 -16 47 -92 112 -153 130 -57 17 -59
17 -104 4z m95 -118 c20 -10 48 -31 61 -45 21 -22 23 -31 15 -54 -9 -24 -15
-27 -55 -26 -50 0 -110 31 -136 70 -14 22 -14 26 1 49 20 31 61 33 114 6z"/>
<path d="M3613 2333 c9 -2 23 -2 30 0 6 3 -1 5 -18 5 -16 0 -22 -2 -12 -5z"/>
<path d="M5140 2320 c0 -5 5 -10 11 -10 5 0 7 5 4 10 -3 6 -8 10 -11 10 -2 0
-4 -4 -4 -10z"/>
<path d="M5481 2326 c2 -2 36 -6 74 -10 46 -4 63 -3 50 3 -19 9 -133 15 -124
7z"/>
<path d="M3730 2307 c-8 -7 -15 -16 -16 -22 -2 -28 -28 -75 -45 -80 -15 -5
-17 -10 -9 -25 13 -25 13 -76 -2 -103 -11 -21 -10 -21 13 -6 15 10 26 29 29
50 8 54 37 88 86 100 41 10 43 13 38 38 -12 47 -24 61 -52 61 -15 0 -34 -6
-42 -13z"/>
<path d="M1435 2299 c-11 -17 1 -21 15 -4 8 9 8 15 2 15 -6 0 -14 -5 -17 -11z"/>
<path d="M1422 2230 c0 -19 2 -27 5 -17 2 9 2 25 0 35 -3 9 -5 1 -5 -18z"/>
<path d="M5115 2255 c-5 -2 -22 -6 -37 -9 -46 -10 -32 -21 27 -22 47 0 55 3
55 18 0 17 -18 22 -45 13z"/>
<path d="M1890 2191 c0 -5 9 -7 20 -4 11 3 20 7 20 9 0 2 -9 4 -20 4 -11 0
-20 -4 -20 -9z"/>
<path d="M3600 2165 c0 -8 -8 -19 -18 -24 -27 -14 -28 -71 -1 -71 40 0 69 51
53 94 -8 20 -34 21 -34 1z"/>
<path d="M1894 2159 c-3 -6 1 -18 10 -28 9 -10 16 -23 16 -29 0 -6 5 -14 11
-18 8 -4 9 3 4 25 -4 19 -3 31 4 31 6 0 8 6 5 13 -6 16 -41 20 -50 6z"/>
<path d="M2015 2121 c-9 -16 9 -20 23 -5 10 12 10 14 -2 14 -8 0 -17 -4 -21
-9z"/>
<path d="M2250 2045 c0 -8 9 -15 20 -15 13 0 18 5 14 15 -4 8 -12 15 -20 15
-8 0 -14 -7 -14 -15z"/>
<path d="M3461 2015 c-17 -25 -31 -51 -31 -58 0 -7 -4 -6 -10 3 -9 13 -13 11
-30 -10 -31 -40 -21 -71 25 -76 27 -3 52 18 140 120 17 19 40 35 53 35 12 1
22 6 22 11 0 6 -17 10 -37 9 -21 -1 -52 2 -69 6 -29 6 -33 4 -63 -40z"/>
<path d="M2304 2014 c3 -9 6 -18 6 -20 0 -3 4 -3 10 1 11 7 2 35 -12 35 -6 0
-7 -7 -4 -16z"/>
<path d="M3700 1991 c0 -5 5 -13 10 -16 6 -3 10 -2 10 4 0 5 -4 13 -10 16 -5
3 -10 2 -10 -4z"/>
<path d="M6624 1959 l-28 -41 25 -22 c14 -11 39 -31 55 -44 l29 -23 -67 6
c-37 3 -74 8 -81 11 -11 4 -77 -72 -77 -89 0 -2 40 -8 89 -11 l89 -7 6 -33
c12 -64 91 -110 143 -83 37 20 125 120 135 155 3 8 -110 95 -258 200 l-32 22
-28 -41z m174 -193 c30 -22 32 -25 17 -40 -21 -21 -31 -20 -54 3 -12 12 -17
27 -14 40 7 27 12 26 51 -3z"/>
<path d="M2287 1965 c-4 -8 -2 -17 3 -20 6 -4 10 -4 10 -1 0 2 3 11 6 20 3 9
2 16 -4 16 -5 0 -12 -7 -15 -15z"/>
<path d="M1044 1878 c-28 -74 -34 -83 -55 -81 -39 3 -87 -17 -109 -44 -32 -41
-26 -91 19 -160 71 -106 59 -106 201 3 69 53 134 102 144 109 20 15 19 18 -40
94 -2 2 -28 -15 -59 -38 -65 -49 -70 -39 -25 48 l29 59 -35 46 c-19 25 -36 46
-37 46 -1 0 -16 -37 -33 -82z m-18 -190 c8 -13 -45 -60 -61 -55 -15 5 -18 36
-5 52 15 18 56 20 66 3z"/>
<path d="M5353 1823 c9 -2 23 -2 30 0 6 3 -1 5 -18 5 -16 0 -22 -2 -12 -5z"/>
<path d="M3400 1800 c0 -11 6 -20 14 -20 9 0 12 7 9 20 -3 11 -9 20 -14 20 -5
0 -9 -9 -9 -20z"/>
<path d="M2825 1790 c-3 -5 -1 -10 4 -10 6 0 11 5 11 10 0 6 -2 10 -4 10 -3 0
-8 -4 -11 -10z"/>
<path d="M2696 1765 c-3 -9 -12 -15 -19 -13 -8 2 -26 -11 -40 -28 -29 -35 -33
-44 -16 -44 5 0 8 4 5 8 -6 10 21 35 48 45 11 4 25 2 34 -5 13 -11 15 -10 9 4
-3 10 -2 20 3 23 15 9 12 25 -4 25 -8 0 -17 -7 -20 -15z"/>
<path d="M3193 1750 c3 -11 2 -18 -2 -15 -10 5 -51 -50 -51 -68 0 -15 46 -44
55 -35 3 3 1 16 -4 30 -13 33 1 52 33 46 33 -7 35 16 4 43 -30 24 -42 24 -35
-1z"/>
<path d="M4382 1730 c0 -14 2 -19 5 -12 2 6 2 18 0 25 -3 6 -5 1 -5 -13z"/>
<path d="M3820 1728 c0 -9 5 -20 10 -23 13 -8 13 5 0 25 -8 13 -10 13 -10 -2z"/>
<path d="M3370 1700 c0 -5 5 -10 11 -10 5 0 7 5 4 10 -3 6 -8 10 -11 10 -2 0
-4 -4 -4 -10z"/>
<path d="M3340 1682 c0 -4 6 -14 13 -21 10 -10 7 -16 -12 -32 -18 -15 -19 -19
-7 -19 20 0 41 42 33 64 -7 16 -27 22 -27 8z"/>
<path d="M2560 1645 c0 -8 2 -15 4 -15 2 0 6 7 10 15 3 8 1 15 -4 15 -6 0 -10
-7 -10 -15z"/>
<path d="M4217 1639 c4 -13 8 -18 11 -10 2 7 -1 18 -6 23 -8 8 -9 4 -5 -13z"/>
<path d="M2521 1604 c-7 -8 -10 -18 -7 -21 7 -7 36 16 36 28 0 13 -13 10 -29
-7z"/>
<path d="M6319 1583 l-32 -37 104 -98 104 -97 -23 -24 c-28 -30 -28 -38 3 -67
l26 -24 88 94 89 95 -29 30 -30 30 -25 -28 -24 -29 -48 40 c-26 22 -63 57 -82
77 -19 20 -47 45 -61 56 l-27 19 -33 -37z"/>
<path d="M3380 1599 c0 -5 5 -7 10 -4 6 3 10 8 10 11 0 2 -4 4 -10 4 -5 0 -10
-5 -10 -11z"/>
<path d="M3500 1588 c0 -6 -17 -8 -39 -6 l-38 3 18 -25 c15 -20 17 -32 10 -63
-8 -33 -7 -38 7 -35 13 3 16 13 14 42 -3 39 -3 39 30 34 29 -5 35 -2 48 26
l16 32 -33 1 c-18 1 -33 -4 -33 -9z"/>
<path d="M1343 1528 c-78 -16 -173 -127 -173 -203 0 -76 96 -165 177 -165 80
0 188 101 200 187 7 50 -23 111 -71 148 -45 34 -82 43 -133 33z m89 -105 c29
-26 22 -59 -24 -109 -53 -58 -82 -70 -114 -49 -44 28 -21 93 53 147 42 32 59
34 85 11z"/>
<path d="M2427 1511 c6 -22 -11 -29 -23 -10 -5 8 -10 6 -16 -5 -7 -12 -20 -17
-41 -15 -53 3 -64 0 -70 -21 -6 -25 -47 -28 -47 -3 0 14 -3 13 -16 -5 -8 -12
-24 -22 -35 -22 -31 0 -23 -36 13 -54 41 -21 47 -20 41 4 -4 16 0 20 20 20 35
0 57 10 57 26 0 7 16 16 38 20 20 4 43 11 49 16 7 6 23 8 36 6 22 -4 23 -2 18
25 -4 17 -12 32 -18 34 -7 3 -9 -4 -6 -16z"/>
<path d="M3086 1521 c-3 -5 1 -14 8 -20 16 -13 32 2 21 19 -8 12 -22 13 -29 1z"/>
<path d="M2855 1513 c-16 -3 -38 -12 -48 -21 -11 -9 -24 -17 -30 -18 -7 0 -19
-2 -26 -2 -23 -3 -1 -19 39 -29 26 -7 40 -19 55 -46 21 -39 41 -50 31 -17 -21
67 -21 63 7 56 15 -3 29 -1 33 6 4 7 3 8 -5 4 -6 -4 -14 0 -17 8 -4 11 -14 14
-30 10 -18 -5 -24 -2 -24 9 0 24 36 30 60 10 11 -10 28 -19 38 -20 9 -2 32 -6
50 -9 26 -5 31 -4 26 9 -3 9 -24 18 -54 22 -28 4 -51 13 -54 21 -3 8 -9 13
-13 13 -4 -1 -21 -4 -38 -6z"/>
<path d="M2670 1500 c0 -5 5 -10 10 -10 6 0 10 5 10 10 0 6 -4 10 -10 10 -5 0
-10 -4 -10 -10z"/>
<path d="M2738 1503 c7 -3 16 -2 19 1 4 3 -2 6 -13 5 -11 0 -14 -3 -6 -6z"/>
<path d="M2630 1459 c0 -5 -9 -9 -20 -9 -23 0 -27 -15 -6 -23 22 -9 87 4 83
16 -4 14 -57 28 -57 16z"/>
<path d="M2517 1408 c-3 -10 -14 -18 -26 -18 -12 0 -21 -6 -21 -15 0 -8 5 -15
10 -15 6 0 10 5 10 10 0 6 7 10 15 10 8 0 15 4 15 9 0 5 9 11 20 14 26 7 26
23 1 23 -11 0 -22 -8 -24 -18z"/>
<path d="M2416 1385 c-3 -8 -1 -15 4 -15 6 0 10 7 10 15 0 8 -2 15 -4 15 -2 0
-6 -7 -10 -15z"/>
<path d="M2570 1356 c0 -8 4 -17 9 -20 5 -4 7 3 4 14 -6 23 -13 26 -13 6z"/>
<path d="M2156 1342 c-3 -6 -1 -14 5 -17 15 -10 25 3 12 16 -7 7 -13 7 -17 1z"/>
<path d="M2363 1333 c-15 -5 -17 -32 -4 -52 8 -12 13 -11 30 10 11 13 20 27
21 30 0 9 -32 17 -47 12z"/>
<path d="M5928 1217 l-46 -32 14 -34 c8 -19 13 -35 12 -35 -2 -1 -20 -14 -41
-30 l-38 -28 -25 23 c-21 19 -27 21 -46 10 -42 -23 -71 -52 -62 -61 43 -42
290 -220 301 -216 22 9 102 71 103 80 0 7 -119 346 -125 353 -1 2 -22 -12 -47
-30z m29 -204 c6 -16 18 -45 28 -67 l16 -39 -56 48 -57 49 24 18 c30 23 32 23
45 -9z"/>
<path d="M1755 1150 c-20 -27 -39 -50 -42 -50 -2 0 -20 12 -40 27 l-35 27 -24
-29 -24 -30 37 -31 c36 -30 36 -30 18 -57 -9 -15 -20 -27 -22 -27 -3 0 -23 14
-44 31 l-39 31 -20 -24 c-11 -12 -19 -29 -20 -35 0 -7 34 -38 76 -69 89 -68
67 -79 208 105 l94 125 -35 28 c-20 15 -39 28 -44 28 -4 0 -24 -22 -44 -50z"/>
<path d="M2397 1166 c-6 -16 3 -31 25 -39 13 -4 15 -2 11 11 -11 29 -30 44
-36 28z"/>
<path d="M5535 953 c-16 -8 -32 -17 -34 -19 -5 -4 75 -159 101 -196 11 -16 17
-28 14 -28 -3 0 -54 38 -113 85 l-107 84 -56 -31 c-30 -17 -57 -32 -59 -34 -2
-2 154 -308 165 -322 1 -2 21 6 43 18 l42 21 -52 97 c-29 53 -56 103 -62 110
-21 26 6 9 102 -68 56 -44 106 -80 112 -80 6 0 36 14 66 31 l53 31 -28 51
c-16 29 -55 100 -86 160 -32 59 -61 107 -64 107 -4 -1 -20 -8 -37 -17z"/>
<path d="M2205 861 c-55 -29 -106 -106 -113 -171 -8 -88 23 -127 154 -193 l51
-26 83 160 c62 122 79 163 71 173 -17 20 -120 64 -166 71 -29 4 -51 1 -80 -14z
m120 -81 c3 -5 -15 -50 -40 -100 -41 -81 -47 -89 -65 -80 -26 14 -33 42 -20
89 13 51 60 101 93 101 14 0 28 -4 32 -10z"/>
<path d="M5060 726 c-89 -35 -114 -52 -139 -96 -19 -35 -22 -51 -18 -93 13
-107 80 -187 156 -187 46 0 191 48 191 63 -1 24 -117 331 -126 333 -5 1 -34
-8 -64 -20z m39 -190 c17 -49 29 -91 27 -94 -12 -11 -58 -3 -77 14 -28 25 -53
117 -39 143 12 23 42 43 51 33 3 -4 20 -47 38 -96z"/>
<path d="M2601 708 c-15 -44 -16 -43 34 -62 25 -10 45 -19 45 -20 0 -2 -5 -17
-11 -34 l-10 -31 -41 15 c-47 16 -53 14 -66 -25 -10 -29 -9 -30 34 -47 24 -9
44 -18 44 -20 0 -1 -4 -14 -10 -28 -9 -25 -10 -25 -44 -11 -20 8 -42 15 -50
15 -17 0 -41 -61 -27 -70 21 -12 180 -64 185 -59 5 5 124 333 122 336 -1 1
-45 17 -98 37 l-97 35 -10 -31z"/>
<path d="M2989 469 l-33 -139 -39 3 c-37 2 -41 0 -48 -28 -5 -16 -5 -32 -1
-36 9 -8 242 -62 247 -57 2 1 6 19 10 39 7 36 6 37 -29 43 -20 4 -36 11 -36
15 0 5 14 66 30 136 17 71 27 131 23 135 -4 4 -27 12 -49 17 l-42 10 -33 -138z"/>
<path d="M3315 518 c-5 -15 -1 -26 15 -38 21 -16 21 -19 10 -101 -17 -130 -19
-139 -41 -139 -17 0 -39 -44 -27 -55 5 -5 133 -25 164 -25 32 0 40 40 12 61
-20 16 -21 18 -7 125 13 100 16 109 37 112 12 2 22 9 22 17 0 7 3 20 6 28 4
11 -11 17 -71 26 -103 15 -113 14 -120 -11z"/>
<path d="M4259 520 c-38 -20 -69 -70 -69 -112 0 -12 7 -76 17 -140 l16 -117
46 6 c25 3 48 7 50 9 3 3 -3 58 -11 124 -9 67 -14 130 -11 140 7 27 50 37 70
17 9 -9 22 -61 33 -136 10 -67 20 -124 23 -127 10 -10 97 8 97 20 -1 32 -32
225 -41 253 -6 18 -24 44 -40 58 -25 20 -41 25 -87 25 -36 -1 -70 -8 -93 -20z"/>
<path d="M3670 325 l0 -185 45 0 44 0 3 122 3 121 50 -121 c55 -134 59 -138
150 -130 l40 3 3 183 2 182 -44 0 -45 0 -3 -127 -3 -126 -50 122 c-27 68 -54
125 -60 126 -5 2 -38 6 -72 10 l-63 6 0 -186z"/>
</g>
</svg>
